<svg width="432" height="381" viewBox="0 0 432 381" fill="none" xmlns="http://www.w3.org/2000/svg">
<path d="M324.821 92.8379C323.024 88.4412 321.023 84.0749 318.833 79.8306C314.47 71.3838 313.468 63.379 307.338 56.3152" stroke="#CCDDE2" stroke-width="7.24" stroke-miterlimit="10"/>
<path d="M293.129 48.219C287.855 43.4869 282.921 38.4006 273.957 34.6019C255.014 26.6009 230.792 25.7894 199.873 37.1051" stroke="#CCDDE2" stroke-width="7.24" stroke-miterlimit="10"/>
<path d="M69.8889 358.323C39.9297 320.973 30.24 278.747 35.2469 235.561" stroke="#CCDDE2" stroke-width="7.24" stroke-miterlimit="10"/>
<path d="M341.677 174.456V174.917C341.384 183.299 350.166 218.047 375.075 229.084C399.984 240.122 417.744 288.57 361.584 307.578C305.424 326.586 308.483 358.323 308.483 358.323" stroke="#CCDDE2" stroke-width="7.24" stroke-miterlimit="10"/>
<path d="M199.869 72.9802V31.9312C199.861 29.1111 198.587 26.4085 196.326 24.4144C194.065 22.4203 191.001 21.2969 187.803 21.2899H33.6657C30.4682 21.2969 27.4038 22.4203 25.1428 24.4144C22.8817 26.4085 21.608 29.1111 21.6 31.9312V224.946C21.6057 227.764 22.8796 230.466 25.1419 232.457C27.4041 234.448 30.4698 235.565 33.6657 235.564H187.803C189.298 235.573 190.781 235.321 192.167 234.825" stroke="black" stroke-width="7.24" stroke-linecap="round" stroke-linejoin="round"/>
<path d="M183.678 27.7936H37.7913C31.8386 27.7936 27.0129 32.0496 27.0129 37.2996V219.574C27.0129 224.824 31.8386 229.08 37.7913 229.08H183.678C189.631 229.08 194.456 224.824 194.456 219.574V37.2996C194.456 32.0496 189.631 27.7936 183.678 27.7936Z" fill="#016EEA"/>
<path d="M181.038 43.3685H42.2626C39.285 43.3685 36.8712 45.4975 36.8712 48.1233V76.3021C36.8712 78.9283 39.285 81.057 42.2626 81.057H181.038C184.016 81.057 186.43 78.9283 186.43 76.3021V48.1233C186.43 45.4975 184.016 43.3685 181.038 43.3685Z" fill="#016EEA"/>
<path d="M110.735 59.242C113.175 59.242 115.154 57.4971 115.154 55.3444C115.154 53.1918 113.175 51.4468 110.735 51.4468C108.294 51.4468 106.315 53.1918 106.315 55.3444C106.315 57.4971 108.294 59.242 110.735 59.242Z" fill="#D7E8F0"/>
<path d="M98.3837 72.9809C98.3837 70.0918 99.6848 67.3212 102.001 65.2786C104.317 63.2357 107.459 62.0881 110.735 62.0881C114.01 62.0881 117.151 63.2357 119.468 65.2786C121.784 67.3212 123.085 70.0918 123.085 72.9809H98.3837Z" fill="#D7E8F0"/>
<path d="M51.827 97.8827H168.117" stroke="white" stroke-width="7.24" stroke-miterlimit="10"/>
<path d="M51.827 107.975H168.117" stroke="white" stroke-width="7.24" stroke-miterlimit="10"/>
<path d="M51.827 172.986H168.117" stroke="white" stroke-width="7.24" stroke-miterlimit="10"/>
<path d="M78.84 182.533H141.104" stroke="white" stroke-width="7.24" stroke-miterlimit="10"/>
<path d="M64.1822 245.059C64.1822 245.059 84.875 172.539 149.325 154.827L175.522 149.313C175.522 149.313 179.664 132.995 178.139 131.281C176.614 129.566 173.482 126.053 167.746 126.815C162.009 127.577 147.178 127.821 143.381 111.831C139.583 95.8402 153.615 57.8316 190.08 52.1471C226.545 46.4626 227.396 70.0769 227.396 70.0769L200.612 124.815L204.768 168.973L205.291 234.753L64.1822 245.059Z" fill="white"/>
<path d="M286.9 189.038C286.468 189.149 280.956 190.562 278.787 193.93C278.374 193.159 277.721 192.507 276.904 192.051C276.087 191.595 275.14 191.354 274.173 191.354H209.438C208.286 191.353 207.168 191.696 206.266 192.328C205.364 192.96 204.733 193.843 204.474 194.833L191.726 243.041C190.862 242.892 189.998 242.801 189.099 242.725L159.015 236.103C157.724 235.817 156.359 235.966 155.187 236.521C154.014 237.075 153.118 237.995 152.673 239.101C152.473 239.598 152.373 240.121 152.379 240.648C152.379 241.845 152.894 242.997 153.819 243.872C154.744 244.748 156.011 245.281 157.365 245.365L171.59 246.172C157.887 251.861 141.216 262.696 127.302 272.652C113.763 253.956 126.468 235.265 136.024 225.199C134.793 214.104 128.555 188.344 97.429 189.045C108.151 176.918 121.522 166.525 138.089 159.567C194.836 215.041 259.757 169.687 261.135 168.711C270.844 174.297 279.532 181.154 286.9 189.045" fill="#2E2E2E"/>
<path d="M281.003 348.173V357.759H93.5971V344.181C100.898 344.562 108.579 343.037 115.564 340.26C124.407 336.709 132.045 331.192 138.577 324.898C145.295 318.383 148.984 309.349 153.265 301.493C159.693 289.663 168.208 281.235 181.721 277.666L180.857 280.942C180.684 281.602 180.681 282.287 180.849 282.948C181.018 283.608 181.353 284.227 181.83 284.757C182.307 285.288 182.914 285.717 183.604 286.012C184.296 286.307 185.053 286.462 185.82 286.463H250.88C249.584 296.369 244.119 350.471 281.003 348.185" fill="#2E2E2E"/>
<path d="M250.91 96.0615C250.858 101.187 250.1 106.288 248.655 111.252C247.996 113.606 246.58 115.741 244.579 117.403C242.577 119.065 240.074 120.182 237.371 120.621C237.263 117.161 235.595 114.125 233.051 112.239C233.283 109.31 233.25 106.369 232.952 103.445C232.783 101.514 232.52 99.7115 232.243 98.0922C232.079 97.1706 231.841 96.2604 231.53 95.3681C230.662 94.5455 229.639 93.8609 228.506 93.345C224.502 91.3562 216.259 89.2416 200.988 92.3506C198.494 92.8542 196.149 93.8132 194.102 95.1662C194.057 95.1913 194.016 95.2218 193.981 95.2576C192.603 96.3777 190.849 97.7951 189.035 98.5304C187.155 99.2924 185.194 99.3229 183.548 97.5207C183.505 97.4826 183.483 97.4483 183.444 97.4102C182.58 96.4158 181.755 95.1242 180.23 94.869C177.016 94.3356 175.452 97.155 175.046 99.5248C174.692 101.716 175.422 103.647 176.489 105.487C177.383 106.984 178.551 108.339 179.945 109.499C180.303 109.805 180.631 110.136 180.926 110.49C180.792 110.511 180.66 110.543 180.533 110.585C180.237 110.673 179.949 110.777 179.669 110.898C175.781 112.441 173.012 116.308 172.951 120.834C172.951 120.975 166.432 120.891 165.607 120.834C162.428 120.575 159.296 119.767 157.058 117.653C150.707 111.652 150.738 102.748 153.347 95.7834C155.818 89.173 158.963 82.7189 163.084 76.7715C172.014 63.9013 185.868 54.4068 203.407 53.5533C207.614 53.367 211.83 53.5842 215.983 54.201C217.948 54.4742 219.891 54.856 221.802 55.344C239.682 62.2249 251.031 77.823 250.927 96.0615" fill="#2E2E2E"/>
<path d="M240.555 242.785C238.442 247.566 233.414 250.302 229.323 248.881C225.232 247.46 223.625 242.461 225.733 237.679C227.841 232.898 232.874 230.158 236.965 231.583C241.056 233.008 242.667 238.007 240.555 242.788" fill="#016EEA"/>
<path d="M251.424 285.487C251.424 285.487 239.95 356.029 285.846 348.211C331.491 340.427 348.767 176.654 216.644 153.101" stroke="black" stroke-width="7.24" stroke-miterlimit="10"/>
<path d="M143.968 217.575C143.968 217.575 106.937 245.117 126.891 272.664" stroke="black" stroke-width="7.24" stroke-miterlimit="10"/>
<path d="M252.258 265.893C251.623 265.928 250.716 265.554 250.098 265.406C249.315 265.223 248.538 265.027 247.769 264.819C243.258 263.58 239.013 261.685 235.211 259.211C234.347 258.666 232.809 258.315 231.755 258.673C231.168 258.863 230.65 259.189 230.255 259.616C229.86 260.042 229.602 260.555 229.509 261.1C229.185 263.066 230.757 264.99 232.472 266.252C234.507 267.753 236.619 269.136 239.086 270.035C241.467 270.878 243.924 271.544 246.43 272.028C247.566 272.26 248.72 272.409 249.847 272.664" stroke="black" stroke-width="7.24" stroke-miterlimit="10"/>
<path d="M266.471 246.808C266.937 248.979 267.278 251.235 267.045 253.441C266.851 255.308 266.09 257.487 263.736 257.94C263.288 258.045 262.824 258.082 262.362 258.051C253.498 257.59 246.192 254.889 237.851 249.57C229.509 244.251 226.571 256.5 234.192 258.672" stroke="black" stroke-width="7.24" stroke-miterlimit="10"/>
<path d="M234.511 267.729C234.306 267.58 234.112 267.421 233.928 267.253C229.776 263.424 229.025 271.116 233.384 273.379L233.945 273.673C234.239 273.783 234.554 273.913 234.865 274.054C235.012 274.088 235.176 274.145 235.328 274.183M235.328 274.183C239.268 275.707 243.462 276.683 247.592 277.677C243.505 276.5 239.432 275.341 235.328 274.183ZM235.328 274.183C234.973 274.054 234.637 273.924 234.282 273.775C234.173 273.735 234.061 273.705 233.945 273.684C233.872 273.655 233.791 273.643 233.711 273.649C233.63 273.656 233.553 273.681 233.487 273.722C233.389 273.793 233.317 273.889 233.28 273.996C232.61 275.414 233.155 277.201 234.01 278.469C234.909 279.811 236.451 280.843 237.972 281.578C242.063 283.601 246.819 284.798 251.411 285.514C252.263 285.67 253.136 285.72 254.003 285.663" stroke="black" stroke-width="7.24" stroke-miterlimit="10"/>
<path d="M291.047 294.391C291.047 294.391 276.968 273.23 275.4 254.831C274.441 243.443 270.648 241.032 267.935 240.868" stroke="black" stroke-width="7.24" stroke-miterlimit="10"/>
<path d="M263.736 257.937L266.475 246.808L267.935 240.864L278.761 196.798C278.922 196.142 278.913 195.463 278.738 194.809C278.561 194.156 278.222 193.546 277.744 193.024C277.266 192.501 276.662 192.08 275.975 191.79C275.289 191.5 274.537 191.35 273.776 191.35H209.036C207.885 191.349 206.767 191.692 205.865 192.324C204.964 192.956 204.332 193.839 204.073 194.828L191.324 243.04L182.019 278.218L181.155 281.513C180.983 282.173 180.982 282.858 181.151 283.518C181.321 284.178 181.656 284.796 182.134 285.326C182.611 285.856 183.217 286.285 183.908 286.579C184.598 286.875 185.356 287.029 186.123 287.03H251.178" stroke="black" stroke-width="7.24" stroke-miterlimit="10"/>
<path d="M183.47 96.2528C183.47 96.2528 186.896 83.4397 206.241 81.7405C225.586 80.0412 230.433 92.7895 230.433 92.7895L229.824 94.0734C229.824 94.0734 204.392 85.0742 190.348 97.9177C190.348 97.9177 185.289 99.9408 183.47 96.2604" fill="#016EEA"/>
<path d="M188.689 242.724L158.6 236.094C157.883 235.938 157.136 235.914 156.407 236.026C155.679 236.137 154.985 236.381 154.369 236.742C153.753 237.103 153.229 237.573 152.83 238.122C152.431 238.671 152.166 239.287 152.052 239.931C151.938 240.576 151.977 241.234 152.166 241.864C152.356 242.494 152.692 243.083 153.154 243.592C153.615 244.102 154.192 244.521 154.847 244.824C155.502 245.126 156.221 245.305 156.959 245.349L171.184 246.175" stroke="black" stroke-width="7.24" stroke-miterlimit="10"/>
<path d="M260.747 168.693C260.747 168.693 195.026 215.647 137.683 159.567" stroke="black" stroke-width="7.24" stroke-miterlimit="10"/>
<path d="M135.622 225.19C134.391 214.095 128.157 188.317 97.0056 189.037" stroke="black" stroke-width="7.24" stroke-miterlimit="10"/>
<path d="M286.507 189.03C286.507 189.03 280.636 190.455 278.385 193.937" stroke="black" stroke-width="7.24" stroke-miterlimit="10"/>
<path d="M48.0038 358.33H327.037" stroke="black" stroke-width="7.24" stroke-miterlimit="10"/>
<path d="M233.051 112.254C235.682 114.204 237.371 117.389 237.371 120.994C237.371 126.975 232.658 131.814 226.835 131.814C226.176 131.811 225.52 131.743 224.878 131.612C231.66 127.04 233.034 112.254 233.034 112.254" fill="#016EEA"/>
<path d="M194.685 136.399C197.954 137.834 201.532 138.64 205.181 138.764C208.831 138.889 212.468 138.328 215.853 137.119C234.939 130.09 234.209 109.371 232.226 98.1086C232.068 97.195 231.843 96.2912 231.552 95.4035V95.3845C229.362 88.9456 223.646 83.6992 216.117 82.2095C201.532 79.3024 188.196 86.5948 182.663 96.4132" stroke="black" stroke-width="7.24" stroke-miterlimit="10"/>
<path d="M231.733 95.6047C231.733 95.6047 231.673 95.5285 231.548 95.4027V95.3837C230.252 94.0959 222.748 87.9504 201.027 92.3662C198.535 92.8687 196.19 93.8281 194.145 95.1817C194.097 95.2061 194.053 95.237 194.016 95.2732" stroke="black" stroke-width="7.24" stroke-miterlimit="10"/>
<path d="M173.837 126.816H163.093C155.339 126.816 149.191 120.553 146.517 114.674C142.759 106.406 145.165 97.944 148.548 89.9087C151.381 83.1841 154.984 76.6499 159.723 70.8016C170.333 57.7142 186.352 50.3 204.764 51.6716C206.397 51.7935 208.022 51.971 209.641 52.205C234.364 55.7406 251.035 73.9715 250.91 96.0504C250.858 101.179 250.101 106.284 248.655 111.252C247.99 113.604 246.573 115.738 244.571 117.399C242.57 119.06 240.069 120.178 237.367 120.621" stroke="black" stroke-width="7.24" stroke-miterlimit="10"/>
<path d="M180.935 110.49C180.639 110.136 180.311 109.803 179.954 109.496C178.559 108.337 177.39 106.983 176.498 105.487C175.431 103.647 174.701 101.716 175.055 99.5248C175.452 97.1702 177.016 94.3355 180.239 94.8689C181.764 95.128 182.576 96.4158 183.453 97.4102C186.788 101.22 191.38 97.3912 194.197 95.0899" stroke="black" stroke-width="7.24" stroke-miterlimit="10"/>
<path d="M233.051 112.254C235.682 114.204 237.371 117.389 237.371 120.994C237.371 126.975 232.658 131.814 226.835 131.814C226.176 131.811 225.52 131.743 224.878 131.612" stroke="black" stroke-width="7.24" stroke-miterlimit="10"/>
<path d="M210.505 119.597C212.864 120.995 218.562 122.142 217.417 117.996C216.043 113.085 214.194 102.593 225.517 101.792C225.517 101.792 230.502 101.979 232.965 103.473" stroke="black" stroke-width="7.24" stroke-miterlimit="10"/>
<path d="M214.769 127.806C214.769 127.806 209.066 130.473 206.241 125.158" stroke="black" stroke-width="7.24" stroke-miterlimit="10"/>
<path d="M203.204 108.966C202.984 110.654 203.731 112.113 204.876 112.232C206.021 112.35 207.127 111.089 207.351 109.389C207.576 107.69 206.82 106.246 205.68 106.128C204.539 106.01 203.424 107.271 203.204 108.966Z" fill="black"/>
<path d="M221.772 109.96C221.551 111.644 222.299 113.107 223.443 113.226C224.588 113.344 225.694 112.083 225.914 110.383C226.135 108.684 225.387 107.236 224.247 107.122C223.106 107.008 221.992 108.265 221.772 109.96Z" fill="black"/>
<path d="M210.505 102.871C210.505 102.871 207.014 98.1235 199.104 102.627" stroke="black" stroke-width="7.24" stroke-miterlimit="10"/>
<path d="M216.639 136.806V163.14" stroke="black" stroke-width="7.24" stroke-miterlimit="10"/>
<path d="M98.5911 294.391C98.5911 294.391 110.899 284.104 126.883 272.674C140.797 262.719 157.486 251.864 171.193 246.179C172.947 245.459 174.649 244.815 176.304 244.274C180.252 242.947 184.489 242.426 188.698 242.75C189.579 242.814 190.455 242.918 191.324 243.063" stroke="black" stroke-width="7.24" stroke-miterlimit="10"/>
<path d="M182.019 278.218C168.502 281.788 159.987 290.216 153.563 302.046C149.291 309.902 145.593 318.935 138.875 325.451C132.348 331.741 124.71 337.262 115.867 340.812C99.8222 347.251 80.0669 346.756 69.6427 332.754C62.5925 323.26 59.819 311.464 58.4107 300.369C55.9915 281.087 63.6293 226.733 97.0056 189.033C107.728 176.906 121.103 166.513 137.665 159.556C149.291 154.686 162.432 151.501 177.327 150.598L181.5 131.613" stroke="black" stroke-width="7.24" stroke-miterlimit="10"/>
<path d="M281.301 348.813V358.33" stroke="black" stroke-width="7.24" stroke-miterlimit="10"/>
<path d="M93.8952 345.415V358.331" stroke="black" stroke-width="7.24" stroke-miterlimit="10"/>
<path d="M193.994 120.995C194.035 123.851 192.885 126.621 190.763 128.779C189.572 129.264 188.276 129.515 186.965 129.514C181.146 129.514 176.429 124.675 176.429 118.694C176.387 115.838 177.539 113.068 179.664 110.914C180.854 110.426 182.15 110.173 183.462 110.175C189.281 110.175 193.994 115.017 193.994 120.995Z" fill="#016EEA"/>
<path d="M183.47 131.815C189.283 131.815 193.994 126.971 193.994 120.995C193.994 115.019 189.283 110.174 183.47 110.174C177.658 110.174 172.947 115.019 172.947 120.995C172.947 126.971 177.658 131.815 183.47 131.815Z" stroke="black" stroke-width="7.24" stroke-miterlimit="10"/>
<path d="M263.52 157.997C268.341 165.236 268.121 170.391 266.868 178.746C266.367 181.928 270.251 184.08 273.4 182.48C301.225 168.383 327.197 179.531 360.374 172.62C372.557 170.098 387.746 164.87 398.157 156.466C401.612 151.942 403.458 146.611 403.458 141.157C403.458 118.297 368.034 99.7385 324.346 99.7385C296.348 99.7385 271.75 107.359 257.688 118.838C257.688 118.838 257.688 118.838 257.649 118.872C254.081 123.585 252.119 128.736 252.119 134.112C252.098 142.315 259.014 151.208 263.52 157.997Z" fill="#D7E8F0"/>
<path d="M252.223 134.112C252.223 134.302 252.223 134.493 252.223 134.691C252.379 142.692 256.932 150.148 262.323 156.599C265.935 160.912 270.22 165.705 269.205 170.993C268.773 173.325 267.283 175.439 266.911 177.778C266.54 180.118 267.952 183.036 270.631 183.158C272.333 183.234 273.78 182.168 275.128 181.253C283.098 175.805 293.458 173.766 303.532 173.408C313.606 173.05 323.667 174.224 333.746 174.475C348.278 174.856 363.04 173.241 376.462 168.326C388.489 163.929 399.509 156.713 406.745 147.074C413.856 137.61 409.653 123.867 402.067 115.637C394.956 107.914 384.653 102.973 374.086 99.4905C345.665 90.1332 313.226 90.3465 285.198 100.599C276.877 103.647 268.829 107.61 262.591 113.344C256.513 118.929 252.288 126.374 252.223 134.112Z" stroke="black" stroke-width="7.24" stroke-miterlimit="10"/>
<path d="M368.837 143.217C374.864 143.217 379.75 138.909 379.75 133.593C379.75 128.278 374.864 123.969 368.837 123.969C362.81 123.969 357.925 128.278 357.925 133.593C357.925 138.909 362.81 143.217 368.837 143.217Z" fill="white"/>
<path d="M333.543 143.217C339.57 143.217 344.455 138.909 344.455 133.593C344.455 128.278 339.57 123.969 333.543 123.969C327.516 123.969 322.631 128.278 322.631 133.593C322.631 138.909 327.516 143.217 333.543 143.217Z" fill="white"/>
<path d="M297.562 143.217C303.588 143.217 308.474 138.909 308.474 133.593C308.474 128.278 303.588 123.969 297.562 123.969C291.535 123.969 286.649 128.278 286.649 133.593C286.649 138.909 291.535 143.217 297.562 143.217Z" fill="white"/>
</svg>
