<svg width="584" height="518" viewBox="0 0 584 518" fill="none" xmlns="http://www.w3.org/2000/svg">
<path d="M122.564 198.394C120.929 200.818 117.507 201.843 114.563 202.367C110.802 203.05 106.913 203.232 103.105 203.532L100.892 204.014C100.473 204.128 100.084 204.315 99.7466 204.563C99.4091 204.812 99.1305 205.117 98.9267 205.461C98.7223 205.805 98.5973 206.182 98.5576 206.569C98.5179 206.956 98.5652 207.347 98.696 207.718C100.065 211.898 101.949 215.931 104.314 219.746L100.81 222.854C99.8173 221.662 99.7706 219.575 98.439 219.777C97.1601 218.642 95.6417 218.088 94.0707 219.606C90.9989 222.584 91.4953 228.774 96.0096 230.484L94.9993 234.944C94.6506 236.503 93.704 237.907 92.3199 238.917C90.9352 239.926 89.1996 240.479 87.4073 240.481L88.184 235.203C82.928 237.56 76.9654 232.462 77.38 228.261C77.6486 225.381 76.9128 223.392 74.5126 221.305C74.3549 221.165 75.3185 220.647 75.1725 220.507C74.495 218.689 74.4016 216.565 75.0732 215.363C76.2412 213.219 79.681 211.965 78.0983 209.624C77.4039 208.603 76.897 207.491 76.5974 206.329C76.2797 204.789 76.3376 203.206 76.768 201.686C77.1984 200.168 77.9903 198.748 79.0911 197.523C81.4271 195.037 85.2231 195.705 88.3242 194.825C92.1026 193.789 93.8488 190.199 97.8025 189.09C99.7706 188.536 101.593 188.79 103.561 189.189C105.225 189.531 106.872 189.914 108.507 190.37C110.142 190.826 111.579 191.204 113.179 190.779C115.293 190.261 116.923 188.51 119.229 188.495C120.381 188.471 121.507 188.79 122.43 189.401C124.135 192.121 124.147 196.068 122.564 198.394Z" fill="#016EEA"/>
<path d="M50.2883 268.531C50.2883 268.531 -13.2918 206.33 80.3409 175.291C85.7703 173.525 91.4293 172.373 97.1834 171.862C112.128 170.453 145.165 165.444 148.973 148.526" stroke="#CCDDE2" stroke-width="4.11" stroke-miterlimit="10"/>
<path d="M317.188 181.456V181.44" stroke="#CCDDE2" stroke-width="4.11" stroke-miterlimit="10"/>
<path d="M150.362 293.453V293.437" stroke="black" stroke-width="4.11" stroke-miterlimit="10"/>
<path d="M100.652 222.44C100.03 221.485 99.2893 220.595 98.4449 219.787C97.1659 218.653 95.6475 218.099 94.0766 219.616C91.0047 222.595 91.5011 228.785 96.0154 230.494L95.0051 234.954C94.6565 236.514 93.7098 237.917 92.3257 238.927C90.9411 239.937 89.2054 240.49 87.4131 240.492" stroke="black" stroke-width="4.11" stroke-linecap="round" stroke-linejoin="round"/>
<path d="M84.5866 260.227C84.8435 258.497 85.4801 253.954 86.0933 249.624C86.6773 245.609 87.197 241.745 87.4014 240.471L88.184 235.203" stroke="black" stroke-width="4.11" stroke-linecap="round" stroke-linejoin="round"/>
<path d="M120.643 208.319C120.643 208.319 113.185 208.645 111.743 214.12" stroke="black" stroke-width="4.11" stroke-miterlimit="10"/>
<path d="M123.352 222.787C125.385 222.74 128.024 222.476 128.982 220.647L123.843 215.618C122.589 214.385 121.848 212.81 121.741 211.152C121.536 208.371 121.904 203.957 118.902 201.02" stroke="black" stroke-width="4.11" stroke-miterlimit="10"/>
<path d="M118.958 215.824C119.799 214.998 119.841 213.816 119.051 213.183C118.262 212.55 116.94 212.706 116.099 213.532C115.257 214.357 115.215 215.54 116.005 216.173C116.794 216.806 118.116 216.65 118.958 215.824Z" fill="black"/>
<path d="M118.453 255.825L114.581 239.176" stroke="black" stroke-width="4.11" stroke-miterlimit="10"/>
<path d="M216.606 330.753L191.651 348.852C221.675 389.463 198.951 396.917 198.951 396.917C194.543 397.666 190.093 398.196 185.619 398.507C163.917 399.896 141.655 394.928 123.767 383.801C87.5591 361.268 56.0231 316.171 72.8423 276.907C74.2574 273.586 75.9866 270.376 78.0107 267.313C79.7551 264.651 81.9761 262.258 84.5866 260.227C89.1558 256.679 94.7826 254.377 100.791 253.597C106.8 252.817 112.934 253.592 118.459 255.829C120.573 256.686 122.573 257.749 124.421 259C133.876 265.418 142.473 274.54 149.884 284.112C156.464 292.769 162.385 301.806 167.608 311.162C169.05 313.716 170.359 316.13 171.515 318.342C181.998 314.581 190.787 308.194 198.963 301.294C189.076 317.663 216.606 330.753 216.606 330.753Z" fill="#353642"/>
<path d="M199.144 343.992C198.665 344.319 198.169 344.661 197.672 344.987" stroke="black" stroke-width="4.11" stroke-miterlimit="10"/>
<path d="M125.367 275.188C131.986 286.428 138.605 297.689 145.223 308.971C150.216 317.487 158.655 322.745 170.54 318.71C183.469 314.317 193.9 305.92 203.547 297.363C213.195 288.806 222.971 280.621 236.9 278.415C254.904 275.56 271.94 284.263 284.204 295.26C285.147 296.099 285.744 297.195 285.898 298.372C286.051 299.549 285.753 300.738 285.05 301.745C284.6 302.39 283.997 302.941 283.286 303.36C282.573 303.78 281.767 304.059 280.923 304.177C280.078 304.295 279.214 304.251 278.391 304.047C277.568 303.843 276.803 303.484 276.15 302.994C270.339 298.596 260.884 292.235 254.309 292.152" stroke="black" stroke-width="4.11" stroke-miterlimit="10"/>
<path d="M236.368 307.241C238.389 308.437 241.192 309.764 243.528 309.764" stroke="black" stroke-width="4.11" stroke-miterlimit="10"/>
<path d="M262.263 294.333C266.573 296.224 268.144 301.756 265.101 305.061C261.243 309.307 256.409 312.775 250.921 315.235C244.918 317.892 241.064 316.271 235.153 313.028" stroke="black" stroke-width="4.11" stroke-miterlimit="10"/>
<path d="M252.288 299.291C252.288 299.291 260.826 301.166 260.598 308.516C260.583 308.83 260.52 309.14 260.411 309.438" stroke="black" stroke-width="4.11" stroke-miterlimit="10"/>
<path d="M246.255 303.92C246.255 303.92 257.708 310.483 252.259 314.612" stroke="black" stroke-width="4.11" stroke-miterlimit="10"/>
<path d="M467.48 329.644C453.99 362.532 416.223 363.459 411.901 363.459C413.711 360.077 414.202 354.135 410.237 343.724C412.893 340.283 414.291 336.201 414.242 332.03C414.193 327.86 412.699 323.805 409.962 320.414C410.015 320.372 410.044 320.315 410.091 320.274C411.979 320.172 413.853 319.92 415.691 319.523C422.209 318.145 435.057 315.12 445.253 310.862C452.168 307.966 460.233 312.607 459.643 319.378C459.643 319.466 459.643 319.549 459.608 319.647C460.958 319.646 462.289 319.934 463.486 320.488C464.683 321.041 465.712 321.842 466.485 322.824C467.258 323.806 467.752 324.938 467.925 326.126C468.099 327.313 467.946 328.521 467.48 329.644Z" fill="#016EEA"/>
<path d="M294.365 406.781C289.822 413.696 282.749 419.586 275.917 424.724C251.862 442.782 220.437 451.95 188.901 452.308C157.26 451.95 125.718 442.751 101.552 424.854C25.1937 368.299 38.9936 301.523 51.3452 270.604C51.7802 269.535 52.3692 268.52 53.0972 267.584C54.063 266.331 55.3168 265.273 56.7762 264.48C58.2357 263.687 59.8676 263.178 61.5653 262.984C68.0477 263.777 73.9344 268.547 72.8949 275.934C72.8949 276.219 72.7664 276.613 72.7372 276.897C55.9296 316.162 87.4774 361.259 123.662 383.792C140.078 394.012 160.18 399.037 180.152 398.71H180.38C182.093 398.679 183.804 398.609 185.513 398.498C196.732 397.773 207.635 395.39 218.434 392.505C231.106 389.143 243.639 385.066 256.3 382.212C260.75 381.207 265.212 380.238 269.697 379.332C272.285 378.861 274.933 378.699 277.569 378.85C293.121 379.783 304.048 392.049 294.365 406.781Z" fill="#D7E8F0"/>
<path d="M298.208 406.781C293.664 413.696 286.586 419.586 279.754 424.724C254.741 443.517 221.739 452.696 188.883 452.308C157.242 451.95 125.7 442.751 101.534 424.854C25.1938 368.299 38.9937 301.523 51.3453 270.604C51.7804 269.535 52.3693 268.52 53.0973 267.584C54.0631 266.331 55.3169 265.273 56.7764 264.48C58.2358 263.687 59.8682 263.178 61.5653 262.984C68.0477 263.777 73.9344 268.547 72.8949 275.934C72.8949 276.219 72.7664 276.613 72.7372 276.897C55.9297 316.162 87.4774 361.259 123.662 383.792C140.078 394.012 160.18 399.037 180.152 398.71H180.38C183.389 398.752 186.382 398.681 189.356 398.498C200.575 397.773 211.472 395.39 222.276 392.505C234.949 389.143 247.482 385.066 260.143 382.212C264.587 381.207 269.055 380.239 273.534 379.332C274.865 379.091 276.213 378.929 277.569 378.85C295.054 377.809 308.673 390.858 298.208 406.781Z" fill="#D7E8F0"/>
<path d="M194.157 452.213L201.842 461.858C201.842 461.858 248.346 463.464 273.797 482.412C278.504 485.919 275.689 492.731 269.545 492.731C268.005 492.736 266.512 492.255 265.335 491.374C259.325 486.898 236.368 472.829 184.439 472.405C133.841 471.985 114.435 485.873 109.068 490.934C108.456 491.505 107.718 491.96 106.901 492.269C106.083 492.578 105.203 492.735 104.314 492.731H103.315C97.0083 492.731 94.3394 485.665 99.3209 482.236C120.567 467.582 168.192 462.91 168.192 462.91L176.321 452.032" fill="#353642"/>
<path d="M399.964 398.731C399.964 398.731 414.208 410.733 409.764 447.941C409.44 450.597 408.398 453.145 406.727 455.369L405.179 457.441C402.641 460.812 398.814 463.255 394.404 464.32C385.101 466.573 368.224 471.795 357.799 481.688C353.396 485.879 356.672 492.706 363.131 492.706C364.335 492.709 365.522 492.448 366.585 491.945C367.647 491.443 368.554 490.714 369.222 489.826C373.468 484.159 386.322 472.126 417.326 472.38C452.296 472.665 466.382 484.998 470.897 490.313C471.52 491.054 472.33 491.656 473.262 492.072C474.193 492.487 475.221 492.704 476.264 492.706C477.571 492.704 478.848 492.363 479.941 491.726C481.032 491.089 481.891 490.183 482.411 489.12C482.931 488.057 483.09 486.881 482.869 485.739C482.647 484.596 482.055 483.536 481.163 482.688C467.527 469.546 450.848 464.646 441.644 462.828C437.02 461.944 432.935 459.559 430.192 456.141C428.092 453.504 426.897 450.384 426.752 447.158C426.238 435.623 425.97 407.619 434.782 398.741" fill="#353642"/>
<path d="M218.55 392.519C243.598 381.734 270.783 374.659 297.513 367.997C324.412 361.294 351.574 355.446 378.817 349.95C389.703 347.759 400.688 345.806 411.521 343.335" stroke="black" stroke-width="4.11" stroke-miterlimit="10"/>
<path d="M242.05 309.614H242.068H242.08" stroke="black" stroke-width="4.11" stroke-miterlimit="10"/>
<path d="M239.241 308.211C237.67 309.588 232.064 316.949 230.657 318.27C222.924 325.62 214.711 332.56 206.059 339.052C203.88 340.658 201.573 342.316 199.144 343.994C198.665 344.32 198.169 344.662 197.672 344.989C181.204 356.074 159.712 366.745 139.856 359.907C139.331 359.736 138.817 359.539 138.309 359.337C107.853 347.242 86.5663 316.949 84.7092 287.708C84.645 286.755 84.6099 285.807 84.5982 284.869C84.4347 276.877 85.7662 268.884 94.4094 264.667" stroke="black" stroke-width="4.11" stroke-miterlimit="10"/>
<path d="M72.889 276.793L73.0117 275.944C74.9506 262.155 52.8754 257.503 47.6369 270.603C35.2912 301.517 21.4854 368.277 97.8609 424.843C147.156 461.367 226.966 461.621 276.074 424.724C282.907 419.59 289.979 413.69 294.529 406.775C306.039 389.287 288.461 375.265 268.634 379.57" stroke="black" stroke-width="4.11" stroke-miterlimit="10"/>
<path d="M194.157 452.213L201.842 461.858C201.842 461.858 248.346 463.464 273.797 482.412C278.504 485.919 275.689 492.731 269.545 492.731C268.005 492.736 266.512 492.255 265.335 491.374C259.325 486.898 236.368 472.829 184.439 472.405C133.841 471.985 114.435 485.873 109.068 490.934C108.456 491.505 107.718 491.96 106.901 492.269C106.083 492.578 105.203 492.735 104.314 492.731H103.315C97.0083 492.731 94.3394 485.665 99.3209 482.236C120.567 467.582 168.192 462.91 168.192 462.91L176.321 452.032" stroke="black" stroke-width="4.11" stroke-miterlimit="10"/>
<path d="M168.192 310.335C187.686 305.673 195.716 281.28 198.951 264.88" stroke="black" stroke-width="4.11" stroke-miterlimit="10"/>
<path d="M149.866 284.128C155.282 283.499 160.425 281.649 164.804 278.753C169.183 275.859 172.652 272.016 174.879 267.593C175.345 266.713 175.571 265.749 175.541 264.777C175.511 263.806 175.224 262.854 174.704 261.999C172.578 258.507 169.407 254.462 170.16 250.276C170.703 247.324 173.442 245.247 176.584 244.578C178.177 244.208 179.854 244.233 181.431 244.651C182.377 244.889 183.251 245.31 183.99 245.884C184.73 246.458 185.315 247.171 185.706 247.971C186.471 249.562 185.56 251.136 184.153 252.172C182.745 253.208 181.098 253.576 179.381 253.991C179.16 254.047 178.552 254.161 177.881 254.275" stroke="black" stroke-width="4.11" stroke-miterlimit="10"/>
<path d="M411.498 343.325C411.498 343.325 449.925 336.187 457.144 325.905C458.497 324.03 459.34 321.902 459.608 319.689" stroke="black" stroke-width="4.11" stroke-miterlimit="10"/>
<path d="M222.411 325.765C289.436 319.451 365.088 320.383 365.088 320.383H407.544C410.288 320.387 413.023 320.101 415.691 319.534C422.209 318.156 435.057 315.136 445.253 310.873C452.168 307.977 460.233 312.618 459.643 319.394C459.643 319.477 459.643 319.565 459.608 319.663C460.955 319.664 462.282 319.952 463.477 320.504C464.672 321.056 465.699 321.855 466.472 322.834C467.244 323.813 467.739 324.943 467.915 326.128C468.09 327.312 467.941 328.517 467.48 329.64C453.161 364.548 411.498 363.455 411.498 363.455C406.172 363.595 400.858 363.781 395.526 364.025C348.555 366.05 301.998 371.898 256.423 382.222C243.762 385.076 231.229 389.148 218.556 392.515C207.752 395.41 196.837 397.777 185.619 398.503C163.917 399.896 141.655 394.923 123.767 383.797C84.5866 359.409 50.8664 308.562 78.0107 267.288C87.5942 252.722 109.296 248.733 124.421 259C145.755 273.478 162.796 301.683 171.538 318.321" stroke="black" stroke-width="4.11" stroke-miterlimit="10"/>
<path d="M466.593 398.731H373.316" stroke="black" stroke-width="4.11" stroke-miterlimit="10"/>
<path d="M354.488 382.019C354.502 377.59 356.491 373.347 360.021 370.215C363.551 367.083 368.335 365.317 373.328 365.303H466.616C471.61 365.315 476.395 367.081 479.927 370.213C483.458 373.345 485.448 377.59 485.462 382.019" stroke="black" stroke-width="4.11" stroke-miterlimit="10"/>
<path d="M487.295 387.946C487.3 389.363 486.989 390.768 486.379 392.079C485.769 393.39 484.873 394.58 483.742 395.583C482.612 396.585 481.269 397.379 479.791 397.919C478.313 398.46 476.729 398.735 475.131 398.73H364.755C361.992 398.498 359.442 397.314 357.653 395.432C355.864 393.55 354.98 391.121 355.189 388.666C355.399 386.211 356.686 383.928 358.774 382.306C360.862 380.684 363.584 379.855 366.355 379.994H476.731C478.69 379.992 480.621 380.41 482.358 381.214C484.096 382.018 485.587 383.183 486.706 384.61C487.096 385.688 487.295 386.813 487.295 387.946Z" fill="#D7E8F0"/>
<path d="M487.295 387.945C487.3 389.363 486.988 390.768 486.379 392.078C485.769 393.389 484.873 394.58 483.742 395.582C482.612 396.584 481.269 397.379 479.791 397.919C478.313 398.459 476.729 398.735 475.131 398.73H364.755C363.135 398.762 361.525 398.506 360.018 397.978C358.512 397.45 357.139 396.66 355.981 395.655C354.823 394.65 353.903 393.451 353.275 392.126C352.647 390.802 352.323 389.38 352.323 387.943C352.323 386.506 352.647 385.083 353.275 383.759C353.903 382.434 354.823 381.235 355.981 380.23C357.139 379.225 358.512 378.435 360.018 377.907C361.525 377.38 363.135 377.124 364.755 377.155H475.131C477.7 377.154 480.205 377.875 482.284 379.214C484.363 380.553 485.911 382.442 486.706 384.609C487.096 385.687 487.295 386.813 487.295 387.945Z" stroke="black" stroke-width="4.11" stroke-miterlimit="10"/>
<path d="M198.741 264.496L198.519 266.159C198.418 266.914 198.008 267.609 197.368 268.114C196.727 268.619 195.901 268.898 195.044 268.899H182.915C182.058 268.898 181.232 268.619 180.591 268.114C179.951 267.609 179.541 266.914 179.44 266.159L177.875 254.245C178.546 254.131 179.154 254.017 179.376 253.96C181.093 253.546 182.757 253.194 184.147 252.142C185.537 251.091 186.483 249.552 185.7 247.941C185.31 247.141 184.724 246.428 183.985 245.854C183.245 245.28 182.371 244.859 181.425 244.621C179.847 244.203 178.171 244.178 176.578 244.548L176.21 241.71C176.156 241.276 176.206 240.837 176.356 240.421C176.505 240.005 176.752 239.623 177.08 239.297C177.408 238.971 177.809 238.711 178.258 238.532C178.707 238.354 179.193 238.261 179.685 238.26H198.297C198.789 238.261 199.274 238.355 199.723 238.534C200.171 238.713 200.571 238.974 200.898 239.299C201.225 239.624 201.472 240.007 201.621 240.422C201.771 240.838 201.82 241.276 201.766 241.71L201.334 244.947" stroke="black" stroke-width="4.11" stroke-miterlimit="10"/>
<path d="M200.36 252.349L200.341 252.464" stroke="black" stroke-width="4.11" stroke-miterlimit="10"/>
<path d="M199.448 259.192V259.146" stroke="black" stroke-width="4.11" stroke-miterlimit="10"/>
<path d="M199.623 259.191C199.571 259.183 199.517 259.183 199.465 259.191C199.392 259.183 199.317 259.183 199.243 259.191C198.486 259.193 197.758 259.448 197.203 259.903C196.647 260.359 196.305 260.984 196.244 261.653C196.183 262.322 196.408 262.987 196.873 263.516C197.339 264.046 198.012 264.401 198.759 264.511C199.08 264.568 199.412 264.568 199.734 264.511C201.192 264.304 202.522 263.652 203.495 262.666C204.791 260.776 205.691 258.693 206.152 256.518C206.16 256.496 206.16 256.472 206.152 256.45C206.508 254.848 206.644 253.213 206.555 251.581M206.555 251.581C206.555 250.882 206.456 250.188 206.362 249.509C206.184 248.374 205.599 247.32 204.694 246.502C203.788 245.684 202.611 245.146 201.334 244.966C201.27 244.966 201.194 244.966 201.13 244.935C198.677 244.666 195.237 245.49 194.6 247.945C194.016 250.162 196.726 252.063 198.951 252.234C198.951 252.234 199.535 252.301 200.359 252.348C202.006 252.446 204.745 252.431 206.555 251.581ZM206.555 251.581C206.821 251.459 207.072 251.311 207.302 251.141" stroke="black" stroke-width="4.11" stroke-miterlimit="10"/>
<path d="M202.181 252.469H201.778H198.665H197.293C196.365 252.471 195.474 252.789 194.801 253.356C194.129 253.924 193.727 254.697 193.678 255.52C193.632 256.318 193.922 257.103 194.492 257.723C195.062 258.343 195.87 258.754 196.761 258.876C200.791 259.451 205.393 259.57 206.181 256.369" stroke="black" stroke-width="4.11" stroke-miterlimit="10"/>
<path d="M399.964 398.731C399.964 398.731 414.208 410.733 409.764 447.941C409.44 450.597 408.398 453.145 406.727 455.369L405.179 457.441C402.641 460.812 398.814 463.255 394.404 464.32C385.101 466.573 368.224 471.795 357.799 481.688C353.396 485.879 356.672 492.706 363.131 492.706C364.335 492.709 365.522 492.448 366.585 491.945C367.647 491.443 368.554 490.714 369.222 489.826C373.468 484.159 386.322 472.126 417.326 472.38C452.296 472.665 466.382 484.998 470.897 490.313C471.52 491.054 472.33 491.656 473.262 492.072C474.193 492.487 475.221 492.704 476.264 492.706C477.571 492.704 478.848 492.363 479.941 491.726C481.032 491.089 481.891 490.183 482.411 489.12C482.931 488.057 483.09 486.881 482.869 485.739C482.647 484.596 482.055 483.536 481.163 482.688C467.527 469.546 450.848 464.646 441.644 462.828C437.02 461.944 432.935 459.559 430.192 456.141C428.092 453.504 426.897 450.384 426.752 447.158C426.238 435.623 425.97 407.619 434.782 398.741" stroke="black" stroke-width="4.11" stroke-miterlimit="10"/>
<path d="M370.355 311.762V312.602C370.355 318.346 365.134 319.336 360.626 319.434L273.37 321.237C269.545 321.32 266.327 318.357 266.246 314.648V314.492C266.246 310.866 269.259 307.836 273.032 307.758C273.032 307.758 321.848 306.536 359.645 305.614C360.369 307.644 362.121 309.209 364.317 310.436C366.136 311.401 368.238 311.863 370.355 311.762Z" stroke="black" stroke-width="4.11" stroke-miterlimit="10"/>
<path d="M416.737 229.867C416.741 230.812 416.497 231.744 416.024 232.591L377.001 303.547C376.543 304.371 375.888 305.096 375.081 305.671C374.274 306.246 373.335 306.658 372.329 306.878C370.718 307.244 369.012 307.09 367.517 306.443C366.319 305.919 365.31 305.107 364.607 304.1C363.904 303.092 363.534 301.93 363.54 300.745C363.543 300.453 363.566 300.163 363.61 299.874C363.714 299.232 363.931 298.608 364.252 298.025L403.27 227.059C403.974 225.786 405.145 224.761 406.59 224.153C408.034 223.545 409.669 223.389 411.227 223.711C412.785 224.032 414.174 224.812 415.169 225.923C416.163 227.035 416.703 228.412 416.702 229.83L416.737 229.867Z" stroke="black" stroke-width="4.11" stroke-miterlimit="10"/>
<path d="M100.816 222.864C100.769 222.719 100.705 222.579 100.652 222.439C100.6 222.299 100.524 222.139 100.477 221.983" stroke="black" stroke-width="4.11" stroke-linecap="round" stroke-linejoin="round"/>
<path d="M100.816 222.869L102.013 221.802L104.302 219.745" stroke="black" stroke-width="4.11" stroke-linecap="round" stroke-linejoin="round"/>
<path d="M114.289 225.678C114.289 225.678 115.825 229.744 121.694 230.019" stroke="black" stroke-width="4.11" stroke-miterlimit="10"/>
<path d="M88.184 235.203C82.928 237.56 76.9654 232.462 77.38 228.261C77.6486 225.381 76.9128 223.393 74.5126 221.305C74.3549 221.165 74.2089 221.02 74.0687 220.88C73.1548 219.998 72.5608 218.893 72.3629 217.708C72.1649 216.524 72.3728 215.313 72.9591 214.234C74.0512 211.981 76.4047 210.66 74.7695 208.23C74.0518 207.18 73.5279 206.035 73.2161 204.837C72.8896 203.25 72.9509 201.62 73.3954 200.055C73.8398 198.49 74.6568 197.029 75.7915 195.767C78.1976 193.177 82.1162 193.892 85.3341 192.986C89.206 191.893 91.0164 188.199 95.081 187.065C97.1134 186.5 98.9997 186.754 101.032 187.163C102.743 187.521 104.46 187.92 106.124 188.386C107.789 188.852 109.307 189.251 110.972 188.811C113.15 188.246 114.826 186.469 117.197 186.454C119.568 186.438 121.39 187.676 122.453 189.406C124.135 192.121 124.147 196.068 122.564 198.409C120.929 200.833 117.507 201.859 114.563 202.382C110.802 203.066 106.913 203.247 103.105 203.548L100.892 204.029C100.05 204.261 99.346 204.779 98.9343 205.471C98.5226 206.162 98.4367 206.971 98.696 207.718C100.065 211.898 101.949 215.931 104.314 219.745" stroke="black" stroke-width="4.11" stroke-miterlimit="10"/>
<path d="M104.302 235.798C104.302 235.798 115.889 243.324 122.494 239.175C129.099 235.026 125.367 222.863 125.367 222.863" stroke="black" stroke-width="4.11" stroke-linecap="round" stroke-linejoin="round"/>
<path d="M186.173 233.064C186.173 233.064 181.25 230.111 184.38 227.096C187.511 224.082 183.341 220.103 183.341 220.103" stroke="black" stroke-width="4.11" stroke-miterlimit="10"/>
<path d="M190.717 233.576C190.717 233.576 193.976 231.623 191.885 229.624C189.794 227.624 192.58 224.962 192.58 224.962" stroke="black" stroke-width="4.11" stroke-miterlimit="10"/>
<path d="M213.172 205.44C248.625 205.44 277.365 179.948 277.365 148.501C277.365 117.055 248.625 91.5627 213.172 91.5627C177.719 91.5627 148.978 117.055 148.978 148.501C148.978 179.948 177.719 205.44 213.172 205.44Z" stroke="#CCDDE2" stroke-width="4.11" stroke-miterlimit="10"/>
<path d="M213.172 179.771C232.643 179.771 248.428 165.77 248.428 148.5C248.428 131.229 232.643 117.228 213.172 117.228C193.7 117.228 177.916 131.229 177.916 148.5C177.916 165.77 193.7 179.771 213.172 179.771Z" stroke="#CCDDE2" stroke-width="4.11" stroke-miterlimit="10"/>
<path d="M213.172 153.861C216.51 153.861 219.216 151.46 219.216 148.499C219.216 145.538 216.51 143.138 213.172 143.138C209.834 143.138 207.127 145.538 207.127 148.499C207.127 151.46 209.834 153.861 213.172 153.861Z" stroke="#CCDDE2" stroke-width="4.11" stroke-miterlimit="10"/>
<path d="M225.687 130.599L216.354 143.942" stroke="#CCDDE2" stroke-width="4.11" stroke-miterlimit="10"/>
<path d="M213.172 117.228V122.791" stroke="#CCDDE2" stroke-width="4.11" stroke-miterlimit="10"/>
<path d="M248.428 148.5H242.483" stroke="#CCDDE2" stroke-width="4.11" stroke-miterlimit="10"/>
<path d="M213.172 179.778V174.37" stroke="#CCDDE2" stroke-width="4.11" stroke-miterlimit="10"/>
<path d="M177.91 148.5H183.271" stroke="#CCDDE2" stroke-width="4.11" stroke-miterlimit="10"/>
<path d="M274.696 243.171C287.887 243.171 298.582 233.685 298.582 221.984C298.582 210.283 287.887 200.798 274.696 200.798C261.505 200.798 250.81 210.283 250.81 221.984C250.81 233.685 261.505 243.171 274.696 243.171Z" fill="#016EEA"/>
<path d="M282.551 214.908C282.214 214.219 281.761 213.58 281.208 213.012C280.261 212.019 278.939 211.366 277.489 211.175C276.039 210.985 274.56 211.269 273.33 211.976C272.527 212.44 271.856 213.063 271.37 213.795C270.884 214.528 270.595 215.35 270.526 216.198C269.269 215.789 267.896 215.754 266.614 216.098C265.333 216.441 264.212 217.146 263.421 218.104C262.629 219.062 262.211 220.223 262.229 221.41C262.246 222.598 262.699 223.748 263.518 224.688C265.229 226.666 268.138 227.967 270.772 228.723C272.153 229.115 273.575 229.382 275.017 229.521C275.747 229.593 279.911 230.09 280.273 229.521C282.872 225.915 284.718 219.311 282.551 214.908Z" fill="white"/>
<g opacity="0.72">
<path opacity="0.72" d="M334.229 213.214C341.493 213.214 347.381 207.992 347.381 201.549C347.381 195.106 341.493 189.883 334.229 189.883C326.966 189.883 321.077 195.106 321.077 201.549C321.077 207.992 326.966 213.214 334.229 213.214Z" fill="#CCE4FF"/>
<path opacity="0.72" d="M339.935 203.615C340.261 203.321 340.532 202.984 340.741 202.615C341.116 201.98 341.217 201.245 341.024 200.549C340.832 199.853 340.359 199.243 339.695 198.834C339.261 198.568 338.764 198.395 338.242 198.328C337.721 198.262 337.188 198.304 336.688 198.451C336.66 197.797 336.392 197.169 335.927 196.662C335.461 196.155 334.822 195.796 334.106 195.639C333.39 195.482 332.636 195.536 331.957 195.793C331.279 196.05 330.713 196.495 330.345 197.062C329.63 198.345 329.352 199.785 329.545 201.206C329.611 201.908 329.756 202.602 329.978 203.278C330.088 203.625 330.672 205.609 331.07 205.671C333.68 206.06 337.862 205.516 339.935 203.615Z" fill="white"/>
</g>
<path d="M315.383 256.635L309.131 268.361C306.864 272.613 308.912 277.689 313.706 279.7L326.925 285.246C331.718 287.256 337.442 285.439 339.709 281.188L345.961 269.462C348.228 265.21 346.179 260.133 341.386 258.123L328.167 252.578C323.373 250.567 317.649 252.384 315.383 256.635Z" fill="#016EEA"/>
<path d="M342.393 271.515L337.867 280.005C336.918 281.773 335.218 283.137 333.139 283.798C331.06 284.458 328.771 284.363 326.771 283.533L315.29 278.715C313.297 277.872 311.761 276.364 311.018 274.52C310.274 272.676 310.382 270.646 311.319 268.873L311.622 268.303C314.741 266.097 320.131 263.123 322.099 267.169C324.932 273.012 328.617 271.126 333.324 268.681C337.254 266.62 341.973 265.931 342.393 271.515Z" fill="white"/>
<path d="M324.611 262.492C326.562 262.492 328.144 261.089 328.144 259.358C328.144 257.627 326.562 256.224 324.611 256.224C322.659 256.224 321.077 257.627 321.077 259.358C321.077 261.089 322.659 262.492 324.611 262.492Z" fill="white"/>
<path d="M384.891 218.177C385.594 219.312 386.103 220.534 386.404 221.803C386.939 224.122 386.785 226.526 385.958 228.776C385.131 231.028 383.658 233.049 381.685 234.644C380.12 235.871 378.128 236.83 376.546 238.114C375.391 238.998 374.541 240.153 374.093 241.445C374.011 241.887 373.811 242.304 373.509 242.662C372.586 243.543 371.681 242.144 370.881 241.906C369.591 241.534 368.193 241.595 366.951 242.077C363.684 243.289 360.047 243.461 356.654 242.564C353.26 241.668 350.322 239.758 348.334 237.16C346.348 234.561 345.435 231.432 345.752 228.305C346.069 225.177 347.596 222.243 350.073 220C352.52 217.788 355.72 216.374 358.833 214.934C361.554 213.654 364.264 212.292 367.219 211.525C374.145 209.686 381.539 212.748 384.891 218.177Z" fill="#016EEA"/>
<path d="M356.999 234.177C358.838 234.177 360.328 232.855 360.328 231.225C360.328 229.594 358.838 228.272 356.999 228.272C355.161 228.272 353.67 229.594 353.67 231.225C353.67 232.855 355.161 234.177 356.999 234.177Z" fill="white"/>
<path d="M365.964 229.924C367.802 229.924 369.292 228.602 369.292 226.972C369.292 225.341 367.802 224.019 365.964 224.019C364.125 224.019 362.635 225.341 362.635 226.972C362.635 228.602 364.125 229.924 365.964 229.924Z" fill="white"/>
<path d="M374.373 225.936C376.212 225.936 377.702 224.614 377.702 222.983C377.702 221.353 376.212 220.031 374.373 220.031C372.535 220.031 371.044 221.353 371.044 222.983C371.044 224.614 372.535 225.936 374.373 225.936Z" fill="white"/>
<path d="M272.88 127.568C272.88 127.568 294.797 187.697 379.168 184.449C407.2 181.341 440.564 184.449 470.272 219.155C515.433 271.95 497.299 330.763 476.778 368.095" stroke="#CCDDE2" stroke-width="4.11" stroke-miterlimit="10"/>
<path d="M50.5043 492.707H554.8" stroke="black" stroke-width="4.11" stroke-miterlimit="10"/>
</svg>
