<svg width="668" height="686" viewBox="0 0 668 686" fill="none" xmlns="http://www.w3.org/2000/svg">
<path d="M58.7841 381.079C58.3165 374.974 57.9557 368.862 57.6685 362.763" stroke="black" stroke-width="4.05" stroke-miterlimit="10"/>
<path d="M396.886 600.69H227.2" stroke="#CCDDE2" stroke-width="4.05" stroke-miterlimit="10"/>
<path d="M446.424 164.152C446.424 164.152 496.431 139.901 538.856 187.215C552.717 202.677 562.175 223.196 562.843 244.366C563.147 254.695 561.525 264.989 558.067 274.694C554.547 284.599 548.228 291.158 543.371 299.98C535.923 313.583 551.494 315.991 559.851 322.583C565.405 327.002 570.673 331.786 575.622 336.907C586.777 348.347 596.591 361.085 604.867 374.863C621.255 402.308 631.123 433.328 633.671 465.415C636.19 497.054 634.259 531.409 618.461 559.514C610.859 573.049 599.41 586.323 585.328 592.634C566.624 601.01 545.616 600.695 525.629 600.695H483.098" stroke="#CCDDE2" stroke-width="4.05" stroke-miterlimit="10"/>
<path d="M237.975 480.295C236.298 492.547 233.8 506.604 231.041 520.673L227.788 521.627C217.377 524.63 206.321 524.298 196.098 520.673L200.36 505.801L174.415 428.283C174.415 428.283 194.248 421.697 210.534 416.806L212.404 416.724C221.302 418.651 239.638 425.889 240.213 452.993C240.253 454.296 240.213 455.668 240.213 457.163C242.798 465.91 241.769 473.621 237.975 480.295Z" fill="#016EEA"/>
<path d="M176.906 185.221C176.651 184.552 176.15 184.013 175.512 183.72C174.874 183.425 174.149 183.401 173.493 183.65C173.126 183.764 172.786 183.958 172.498 184.219C171.469 185.077 171.235 186.579 171.202 188.006C171.108 191.264 170.928 194.53 170.694 197.774C170.694 197.994 170.661 198.241 170.661 198.46C170.514 201.074 170.621 204.243 169.538 206.521C169.469 206.695 169.351 206.843 169.198 206.946C168.837 207.118 168.456 206.747 168.222 206.411C167.554 205.41 166.886 204.429 166.218 203.407C165.691 202.59 165.096 201.705 164.174 201.445C162.805 201.054 161.502 202.295 160.748 203.557C158.309 207.673 158.076 214.417 161.85 217.867C165.624 221.318 157.174 228.103 151.122 230.956C150.108 231.541 149.047 232.033 147.949 232.424C147.895 232.424 150.133 232.939 150.08 232.959C145.37 234.643 140.464 235.679 135.49 236.04C129.585 236.444 123.827 235.683 119.639 233.049C119.819 232.363 121.249 227.561 121.336 226.875C121.643 224.48 121.863 222.107 122.004 219.699C122.257 215.178 122.237 210.651 122.07 206.144C121.462 189.927 124.275 176.303 130.794 174.224C131.309 174.066 131.803 173.842 132.264 173.559C135.203 171.892 136.773 168.373 135.424 165.052C135.33 164.826 135.223 164.606 135.13 164.366C135.024 164.13 134.904 163.9 134.769 163.68C147.501 159.619 156.145 162.439 164.882 167.35C166.545 168.715 168.108 170.203 169.558 171.802C172.979 175.615 175.494 180.189 176.906 185.166V185.221Z" fill="#016EEA"/>
<path d="M482.964 341.14H439.544V234.563C439.544 234.563 431.528 327.166 409.564 379.632H275.089C290.941 369.287 303.653 353.66 312.116 336.839C315.456 330.185 320.8 320.306 329.685 322.9C331.796 323.51 334.902 323.901 336.472 321.919C337.013 321.158 337.321 320.247 337.353 319.305C338.115 309.591 328.309 301.414 320.226 298.835C312.143 296.255 302.698 297.463 296.265 303.493C291.629 307.849 288.723 313.632 285.33 318.989C283.293 322.164 280.879 325.066 278.142 327.626C281.629 305.88 284.735 285.094 285.183 277.445C293.686 270.551 299.932 259.307 302.15 249.36C304.588 238.494 306.739 227.868 310.526 217.695L341.528 217.804C342.696 217.804 343.816 217.328 344.641 216.48C345.467 215.632 345.93 214.483 345.93 213.284V160.407C345.932 159.219 345.476 158.078 344.661 157.235C343.846 156.392 342.739 155.914 341.582 155.907L320.473 155.721C328.144 154.075 335.923 153.009 343.746 152.531C343.906 152.531 344.053 152.531 344.194 152.531C349.344 152.182 358.369 152.031 363.566 151.976C357.373 155.406 353.546 162.691 354.214 169.126C354.331 170.496 354.673 171.837 355.222 173.091C360.513 185.027 374.447 188.553 385.95 185.082C398.749 181.247 408.155 169.16 407.594 155.255C415.61 156.462 423.545 157.994 431.401 159.851C443.338 162.67 454.981 166.471 464.42 174.758C472.65 181.954 479.624 191.222 482.85 201.697C496.705 246.486 492.443 296.468 482.964 341.14Z" fill="#2E2E2E"/>
<path d="M285.53 277.447C284.555 293.814 282.043 310.169 279.318 326.482" stroke="black" stroke-width="4.05" stroke-miterlimit="10"/>
<path d="M310.874 217.695C307.08 227.869 304.935 238.495 302.497 249.361C300.259 259.274 294.027 270.552 285.53 277.446C278.396 283.229 269.658 285.952 260.306 282.303C247.761 277.391 243.359 263.191 241.823 250.671C239.826 235.082 239.704 219.3 241.462 203.68C243.232 207.721 250.467 220.014 272.905 216.783C273.507 217.245 274.231 217.511 274.982 217.544L310.874 217.695Z" fill="#2E2E2E"/>
<path d="M298.275 182.525C303.499 181.153 306.679 186.312 305.904 190.236C304.641 196.636 295.677 199.154 290.34 199.271C286.064 199.36 275.644 198.2 271.395 197.693" stroke="black" stroke-width="4.05" stroke-miterlimit="10"/>
<path d="M269.638 185.694C276.1 187.612 282.944 187.728 289.464 186.03C294.949 184.583 301.428 181.914 304.301 176.556C305.977 173.442 304.641 168.475 301.141 167.378C297.1 166.122 293.359 170.252 289.698 171.295C287.337 171.955 284.926 172.414 282.491 172.667C281.823 172.742 281.195 172.797 280.547 172.852C277.138 173.133 273.711 173.107 270.306 172.777C269.944 172.777 269.591 172.659 269.298 172.442C269.004 172.224 268.784 171.916 268.67 171.563C268.556 171.21 268.553 170.829 268.663 170.474C268.772 170.12 268.987 169.809 269.277 169.587L269.892 169.127" stroke="black" stroke-width="4.05" stroke-miterlimit="10"/>
<path d="M310.874 217.695C307.08 227.868 304.935 238.494 302.497 249.36C298.382 267.601 280.834 290.328 260.306 282.288C247.761 277.377 243.359 263.176 241.823 250.657C239.418 231.27 239.618 211.356 243.159 192.134C246.098 176.301 251.315 159.673 266.318 151.887L273.359 148.271C275.038 147.4 276.983 147.238 278.776 147.82C280.571 148.402 282.071 149.682 282.958 151.386C283.499 152.445 283.785 153.621 283.793 154.816C283.8 154.991 283.786 155.166 283.753 155.337" stroke="black" stroke-width="4.05" stroke-miterlimit="10"/>
<path d="M453.879 366.503C457.507 366.388 461.137 366.482 464.754 366.784C467.707 367.031 470.766 367.175 473.579 368.307C475.897 369.254 478.315 371.511 478.194 374.269C477.974 379.674 471.08 379.633 467.299 379.633" stroke="black" stroke-width="4.05" stroke-miterlimit="10"/>
<path opacity="0.54" d="M389.003 361.351L420.439 278.639C420.829 277.036 420.856 275.363 420.521 273.748C420.185 272.131 419.495 270.616 418.503 269.315C417.511 268.015 416.244 266.964 414.797 266.242C413.349 265.521 411.761 265.148 410.152 265.153H285.316C282.518 265.159 279.804 266.132 277.609 267.913C275.414 269.695 273.865 272.182 273.212 274.976L238.757 357.667C238.383 359.263 238.366 360.925 238.708 362.529C239.051 364.133 239.743 365.637 240.733 366.926C241.722 368.215 242.984 369.258 244.422 369.975C245.86 370.691 247.439 371.064 249.037 371.064H376.892C379.677 371.062 382.38 370.106 384.574 368.346C386.769 366.586 388.327 364.124 389.003 361.351Z" fill="white"/>
<path d="M389.003 361.351L420.439 278.639C420.829 277.036 420.856 275.363 420.521 273.748C420.185 272.131 419.495 270.616 418.503 269.315C417.511 268.015 416.244 266.964 414.797 266.242C413.349 265.521 411.761 265.148 410.152 265.153H285.316C282.518 265.159 279.804 266.132 277.609 267.913C275.414 269.695 273.865 272.182 273.212 274.976L238.757 357.667C238.383 359.263 238.366 360.925 238.708 362.529C239.051 364.133 239.743 365.637 240.733 366.926C241.722 368.215 242.984 369.258 244.422 369.975C245.86 370.691 247.439 371.064 249.037 371.064H376.892C379.677 371.062 382.38 370.106 384.574 368.346C386.769 366.586 388.327 364.124 389.003 361.351Z" fill="#016EEA"/>
<path d="M389.003 361.351L420.439 278.639C420.829 277.036 420.856 275.363 420.521 273.748C420.185 272.131 419.495 270.616 418.503 269.315C417.511 268.015 416.244 266.964 414.797 266.242C413.349 265.521 411.761 265.148 410.152 265.153H285.316C282.518 265.159 279.804 266.132 277.609 267.913C275.414 269.695 273.865 272.182 273.212 274.976L238.757 357.667C238.383 359.263 238.366 360.925 238.708 362.529C239.051 364.133 239.743 365.637 240.733 366.926C241.722 368.215 242.984 369.258 244.422 369.975C245.86 370.691 247.439 371.064 249.037 371.064H376.892C379.677 371.062 382.38 370.106 384.574 368.346C386.769 366.586 388.327 364.124 389.003 361.351Z" stroke="black" stroke-width="4.05" stroke-linecap="square" stroke-linejoin="round"/>
<path d="M384.401 358.003L413.405 281.699C413.765 280.222 413.791 278.681 413.484 277.191C413.176 275.702 412.542 274.305 411.629 273.105C410.716 271.906 409.55 270.935 408.217 270.268C406.885 269.601 405.422 269.254 403.94 269.255H288.743C286.157 269.254 283.646 270.147 281.615 271.792C279.583 273.436 278.151 275.734 277.547 278.317L245.824 354.607C245.482 356.079 245.469 357.612 245.787 359.089C246.103 360.567 246.742 361.952 247.655 363.14C248.567 364.328 249.73 365.289 251.056 365.949C252.382 366.61 253.836 366.954 255.31 366.955H373.232C375.799 366.957 378.294 366.077 380.318 364.455C382.342 362.832 383.779 360.561 384.401 358.003Z" fill="#016EEA"/>
<path d="M297.053 283.319C298.583 280.966 301.061 279.889 302.637 280.979C304.214 282.07 304.214 284.814 302.691 287.153C302.45 287.514 302.183 287.853 301.889 288.169L313.205 312.707C315.009 311.472 316.993 311.163 318.422 312.138C318.88 312.481 319.26 312.922 319.534 313.432C319.809 313.942 319.972 314.506 320.012 315.087L327.748 312.412L334.508 310.073L336.712 309.332C336.991 308.479 337.377 307.668 337.861 306.917C340.005 303.604 343.512 302.115 345.697 303.624C347.881 305.133 347.908 308.941 345.824 312.227L358.716 330.303C361.528 327.936 364.835 327.202 367.126 328.766C370.246 330.9 370.292 336.463 367.233 341.183C367.106 341.375 366.966 341.526 366.839 341.704L375.416 353.75L375.496 353.867C375.934 354.547 376.092 355.377 375.934 356.176C375.777 356.975 375.316 357.677 374.654 358.127C373.992 358.578 373.184 358.74 372.406 358.577C371.628 358.415 370.944 357.942 370.506 357.263L362.891 345.457C360.48 346.89 357.914 347.165 356.037 345.882C353.058 343.824 352.911 338.693 355.57 334.117L343.232 314.991C341.408 316.26 339.397 316.583 337.955 315.602C337.153 315.017 336.606 314.133 336.432 313.139L335.51 313.4L328.636 315.327L319.832 317.77C319.557 318.853 319.105 319.88 318.496 320.809C316.351 324.115 312.844 325.611 310.66 324.101C308.476 322.592 308.442 318.716 310.587 315.403C310.901 314.917 311.254 314.458 311.642 314.031L300.867 289.033C299.571 289.945 298.135 290.179 297.106 289.472C295.557 288.416 295.53 285.644 297.053 283.319Z" fill="#D7E8F0"/>
<path d="M379.023 284.634H395.723C396.487 284.632 397.233 284.404 397.872 283.975C398.511 283.546 399.016 282.937 399.324 282.219C399.415 282.002 399.465 281.77 399.471 281.533C399.469 281.065 399.286 280.617 398.964 280.286C398.64 279.956 398.203 279.77 397.747 279.77H379.998C380.833 281.204 380.413 283.214 379.023 284.634Z" fill="#D7E8F0"/>
<path d="M368.228 282.878C368.23 283.344 368.412 283.791 368.733 284.12C369.055 284.449 369.491 284.634 369.945 284.634H379.023C380.413 283.214 380.833 281.204 379.998 279.757H371.982C371.22 279.756 370.473 279.984 369.834 280.411C369.195 280.839 368.69 281.448 368.382 282.165C368.284 282.389 368.231 282.632 368.228 282.878Z" fill="#3FBDF1"/>
<path d="M372.403 284.636C372.452 284.73 372.508 284.819 372.57 284.903C373.759 286.577 376.345 286.735 378.349 285.233C378.586 285.052 378.809 284.853 379.017 284.636C380.406 283.216 380.827 281.206 379.992 279.758C379.948 279.664 379.894 279.574 379.831 279.491C378.649 277.81 376.064 277.666 374.06 279.155C373.823 279.339 373.6 279.54 373.392 279.758C372.003 281.185 371.582 283.181 372.403 284.636Z" fill="white"/>
<path d="M364.06 293.642C364.063 294.109 364.246 294.556 364.57 294.885C364.892 295.214 365.329 295.398 365.783 295.398H383.305C382.457 293.944 382.878 291.968 384.267 290.521H367.787C367.023 290.522 366.275 290.75 365.635 291.179C364.995 291.608 364.49 292.217 364.18 292.936C364.096 293.161 364.055 293.401 364.06 293.642Z" fill="#3FBDF1"/>
<path d="M383.278 295.398H391.521C392.284 295.398 393.029 295.171 393.668 294.745C394.307 294.319 394.812 293.712 395.122 292.997C395.216 292.781 395.268 292.547 395.276 292.311C395.276 292.079 395.233 291.849 395.147 291.635C395.061 291.421 394.934 291.226 394.775 291.062C394.615 290.898 394.425 290.769 394.217 290.68C394.008 290.592 393.785 290.547 393.559 290.548H384.24C382.851 291.947 382.43 293.943 383.278 295.398Z" fill="#D7E8F0"/>
<path d="M383.278 295.398C383.317 295.493 383.367 295.583 383.425 295.666C384.608 297.347 387.193 297.498 389.197 296.002C389.434 295.818 389.657 295.616 389.865 295.398C391.241 293.972 391.662 291.968 390.84 290.521C390.791 290.428 390.738 290.339 390.68 290.253C389.484 288.58 386.899 288.429 384.895 289.931C384.658 290.109 384.434 290.306 384.227 290.521C382.851 291.948 382.43 293.944 383.278 295.398Z" fill="white"/>
<path d="M377.42 306.086H387.908C388.671 306.085 389.418 305.857 390.058 305.43C390.698 305.003 391.204 304.395 391.515 303.678C391.606 303.462 391.656 303.228 391.662 302.992C391.662 302.523 391.48 302.071 391.157 301.738C390.834 301.406 390.396 301.217 389.938 301.216H378.415C379.244 302.663 378.816 304.659 377.42 306.086Z" fill="#3FBDF1"/>
<path d="M360.439 304.337C360.44 304.568 360.486 304.796 360.572 305.009C360.659 305.221 360.785 305.415 360.945 305.577C361.105 305.739 361.294 305.868 361.502 305.955C361.709 306.043 361.932 306.088 362.156 306.086H377.42C378.796 304.659 379.224 302.656 378.395 301.202H364.194C363.429 301.201 362.681 301.43 362.041 301.861C361.401 302.291 360.898 302.903 360.593 303.624C360.495 303.848 360.442 304.091 360.439 304.337Z" fill="#D7E8F0"/>
<path d="M370.82 306.086C370.869 306.18 370.924 306.269 370.987 306.354C372.17 308.035 374.748 308.179 376.759 306.683C376.996 306.502 377.22 306.303 377.427 306.086C378.803 304.659 379.23 302.656 378.402 301.202C378.359 301.107 378.304 301.017 378.242 300.934C377.046 299.267 374.467 299.123 372.457 300.612C372.221 300.792 371.998 300.989 371.789 301.202C370.413 302.629 369.985 304.639 370.82 306.086Z" fill="white"/>
<path d="M309.625 356.492H320.119C320.881 356.491 321.627 356.262 322.266 355.836C322.905 355.408 323.41 354.8 323.719 354.084C323.811 353.868 323.861 353.634 323.866 353.398C323.866 352.929 323.685 352.479 323.361 352.147C323.038 351.815 322.6 351.629 322.143 351.629H310.62C311.428 353.069 311.001 355.065 309.625 356.492Z" fill="#3FBDF1"/>
<path d="M267.982 354.744C267.982 354.974 268.028 355.202 268.115 355.415C268.201 355.628 268.328 355.821 268.487 355.983C268.646 356.146 268.835 356.274 269.043 356.362C269.251 356.449 269.474 356.494 269.698 356.493H309.625C311.001 355.066 311.428 353.063 310.6 351.615H271.736C270.972 351.615 270.225 351.843 269.585 352.271C268.946 352.701 268.442 353.311 268.135 354.03C268.04 354.255 267.988 354.497 267.982 354.744Z" fill="#D7E8F0"/>
<path d="M303.005 356.494C303.054 356.587 303.109 356.677 303.172 356.761C304.354 358.442 306.933 358.586 308.943 357.097C309.179 356.912 309.402 356.71 309.611 356.494C310.987 355.067 311.415 353.064 310.587 351.616C310.543 351.521 310.489 351.431 310.426 351.349C309.231 349.675 306.652 349.531 304.641 351.019C304.404 351.2 304.18 351.399 303.973 351.616C302.604 353.036 302.17 355.046 303.005 356.494Z" fill="white"/>
<path d="M45.5443 382.912C45.5443 382.912 23.5003 485.174 80.2068 506.536C136.913 527.898 290.092 507.833 226.432 434.047C162.772 360.26 45.5443 382.912 45.5443 382.912Z" fill="#2E2E2E"/>
<path d="M320.693 155.722C328.401 154.071 336.214 153.001 344.073 152.518C344.24 152.518 344.381 152.518 344.528 152.518C349.691 152.169 358.736 152.018 363.9 151.963" stroke="black" stroke-width="4.05" stroke-miterlimit="10"/>
<path d="M282.49 172.647C282.437 172.681 282.403 172.722 282.35 172.757" stroke="black" stroke-width="4.05" stroke-miterlimit="10"/>
<path d="M370.373 129.653C366.431 131.78 361.902 130.339 360.166 126.717" stroke="black" stroke-width="4.05" stroke-miterlimit="10"/>
<path d="M347.494 77.9632C347.316 81.1106 348.102 84.236 349.742 86.9004C351.383 89.5655 353.794 91.6359 356.639 92.822C357.24 91.688 358.102 90.7228 359.15 90.0094C363.579 87.0664 362.791 94.928 374.815 92.8563C391.481 89.9682 395.73 95.9295 395.73 95.9295C396.097 96.4509 395.062 99.8535 394.915 100.478C394.247 104.134 393.579 107.77 392.971 111.454C392.579 113.685 392.183 115.903 391.782 118.108C392.085 117.806 392.407 117.524 392.744 117.264C395.483 112.874 399.497 107.948 403.873 111.968C404.751 112.805 405.425 113.844 405.837 115C407.841 120.591 404.006 124.186 399.524 126.34C398.342 127.075 397.085 127.675 395.777 128.13C395.997 129.544 396.912 135.176 396.912 135.189C397.006 135.766 408.135 128.72 409.063 127.863C410.741 125.585 412.034 123.034 412.891 120.317C416.351 109.108 415.763 94.6193 408.796 85.3994C407.066 83.1151 408.221 81.7979 408.722 79.5753C408.746 79.4553 408.735 79.3311 408.69 79.2186C408.644 79.1054 408.567 79.0094 408.467 78.9421C408.368 78.8749 408.252 78.8399 408.133 78.8413C408.014 78.8433 407.898 78.8811 407.801 78.951C404.046 81.3726 397.253 78.8962 397.253 78.8962C375.209 65.2994 363.913 73.71 358.509 74.1353C356.317 74.2897 354.142 73.6538 352.357 72.338C352.043 72.9746 351.566 73.5111 350.978 73.8904C350.389 74.2698 349.711 74.4776 349.017 74.492L348.803 75.672C348.639 76.5686 348.176 77.3787 347.494 77.9632Z" fill="#016EEA"/>
<path d="M356.652 92.8494C353.808 91.664 351.396 89.5937 349.755 86.9285C348.116 84.2634 347.329 81.138 347.507 77.9907C347.572 76.7819 347.742 75.5814 348.015 74.4029L348.208 74.444C348.472 74.5051 348.741 74.5257 349.01 74.5058C349.705 74.4921 350.383 74.2842 350.971 73.9048C351.56 73.5255 352.036 72.9883 352.35 72.3517C352.534 71.9978 352.663 71.6157 352.731 71.2198L353.759 65.4781C353.759 65.4781 357.099 70.1222 362.443 69.69C367.787 69.2579 379.083 60.8476 401.187 74.4509C401.187 74.4509 406.491 76.4609 410.246 74.0393C410.343 73.97 410.459 73.9316 410.578 73.9302C410.696 73.9288 410.813 73.9638 410.912 74.0311C411.012 74.0983 411.089 74.1943 411.135 74.3068C411.18 74.42 411.191 74.5442 411.167 74.6635C410.666 76.8793 411 78.6698 412.73 80.9542C419.698 90.174 420.286 104.662 416.825 115.872C415.31 120.517 412.62 124.665 409.03 127.89C408.101 128.748 396.972 135.793 396.879 135.217C396.879 135.217 395.964 129.571 395.743 128.158L395.69 127.835L396.004 127.739C397.194 127.361 398.359 126.903 399.491 126.367C403.973 124.213 407.827 120.619 405.803 115.028C405.391 113.873 404.718 112.833 403.839 111.996C399.464 107.976 395.449 112.901 392.711 117.292C392.181 118.125 391.747 119.018 391.415 119.953C391.521 119.35 391.628 118.76 391.742 118.156C392.143 115.947 392.539 113.729 392.931 111.502C393.599 107.839 394.22 104.203 394.875 100.526C394.995 99.9015 396.057 96.4989 395.69 95.9776C395.69 95.9776 391.441 90.0162 374.775 92.9043C362.751 94.9623 363.539 87.1145 359.11 90.0574C358.062 90.7708 357.2 91.7367 356.598 92.87C356.412 93.2397 356.247 93.6198 356.104 94.0088C356.08 94.0575 356.06 94.1082 356.044 94.1597C355.743 95.0103 355.47 95.8678 355.202 96.7047C352.704 104.861 351.054 113.67 351.936 122.238C353.011 132.624 360.379 144.834 372.103 143.799C375.791 143.355 379.389 142.318 382.764 140.725" stroke="black" stroke-width="4.05" stroke-miterlimit="10"/>
<path d="M357.931 114.985C359.078 114.952 359.976 113.77 359.937 112.346C359.898 110.922 358.936 109.795 357.789 109.829C356.643 109.862 355.744 111.043 355.783 112.467C355.823 113.891 356.784 115.018 357.931 114.985Z" fill="black"/>
<path d="M373.628 119.318C374.775 119.284 375.673 118.103 375.634 116.68C375.595 115.256 374.634 114.128 373.487 114.161C372.34 114.195 371.442 115.376 371.481 116.8C371.52 118.224 372.481 119.352 373.628 119.318Z" fill="black"/>
<path d="M366.852 120.268C366.852 120.268 360.78 121.64 361.395 118.443C361.582 117.442 363.105 107.605 363.105 107.605C363.105 107.605 360.272 101.746 352.864 103.111" stroke="black" stroke-width="4.05" stroke-miterlimit="10"/>
<path d="M369.578 106.729C369.578 106.729 379.204 105.049 382.891 112.944" stroke="black" stroke-width="4.05" stroke-miterlimit="10"/>
<path d="M364.007 151.879C356.425 155.995 352.377 165.901 355.55 173.07C360.84 185.013 374.768 188.525 386.278 185.075C399.077 181.233 408.482 169.118 407.921 155.227" stroke="black" stroke-width="4.05" stroke-miterlimit="10"/>
<path d="M409.912 379.626C431.895 327.161 439.878 234.558 439.878 234.558V363.759C439.877 365.843 440.276 367.907 441.052 369.832C441.829 371.758 442.967 373.507 444.402 374.981C445.837 376.454 447.54 377.623 449.415 378.42C451.29 379.217 453.299 379.627 455.329 379.626H504.093C505.921 379.656 507.695 378.99 509.075 377.758C510.454 376.527 511.343 374.815 511.568 372.951C511.666 371.925 511.553 370.889 511.238 369.91C510.922 368.931 510.409 368.031 509.734 367.267C509.059 366.504 508.235 365.895 507.317 365.478C506.398 365.062 505.404 364.848 504.4 364.85H484.427C483.631 364.847 482.845 364.658 482.13 364.296C481.416 363.935 480.792 363.411 480.304 362.764C479.817 362.116 479.48 361.364 479.319 360.562C479.159 359.761 479.178 358.933 479.377 358.141C491.401 309.435 498.836 252.263 483.184 201.671C479.951 191.23 472.984 181.928 464.754 174.739C455.309 166.452 443.666 162.651 431.735 159.839C423.866 157.986 415.928 156.454 407.921 155.242C407.897 155.251 407.871 155.251 407.847 155.242C407.794 155.242 407.741 155.242 407.707 155.242H407.654H407.58H407.473" stroke="black" stroke-width="4.05" stroke-miterlimit="10"/>
<path d="M402.884 131.932L402.002 148.32C401.918 149.922 402.408 151.5 403.378 152.756C404.35 154.012 405.735 154.86 407.273 155.139H407.473C407.508 155.129 407.545 155.129 407.58 155.139H407.614H407.707" stroke="black" stroke-width="4.05" stroke-miterlimit="10"/>
<path d="M407.847 155.214H407.707H407.654H407.614H407.58H407.473H407.273C405.735 154.935 404.35 154.087 403.378 152.831C402.408 151.574 401.918 149.997 402.002 148.396L402.884 132.007" stroke="black" stroke-width="4.05" stroke-miterlimit="10"/>
<path d="M365.269 142.778C364.835 142.599 365.269 161.08 354.534 169.107" stroke="black" stroke-width="4.05" stroke-miterlimit="10"/>
<path d="M221.549 379.631H187.16" stroke="black" stroke-width="4.05" stroke-miterlimit="10"/>
<path d="M557.506 379.631H275.089" stroke="black" stroke-width="4.05" stroke-miterlimit="10"/>
<path d="M122.077 206.121C122.408 213.04 122.167 219.975 121.356 226.852C120.313 234.933 113.039 245.202 111.462 253.194C109.211 264.692 112.618 276.573 117.294 287.247C122.945 300.151 131.85 313.13 130.981 327.907C130.537 334.342 128.672 340.589 125.529 346.176C122.386 351.761 118.046 356.54 112.839 360.149C105.706 365.049 97.5587 368.173 89.0444 369.272C87.8554 369.416 86.6463 369.533 85.4372 369.567C84.7692 369.567 84.1012 369.492 83.4332 369.437C60.788 367.468 37.5616 349.728 37.6151 325.032C37.6151 309.254 49.2917 296.906 51.2623 281.595C52.4713 272.231 49.7994 262.503 52.271 253.414C56.279 238.898 71.7699 230.982 78.5568 217.618C83.5534 207.754 84.3684 196.243 88.323 185.898C93.8273 171.492 102.618 155.028 114.642 153.656C118.131 154.062 121.504 155.192 124.555 156.976C132.01 161.092 133.907 161.353 135.424 165.023C136.973 168.858 134.662 172.953 130.801 174.181C124.281 176.301 121.469 189.904 122.077 206.121Z" fill="#016EEA"/>
<path d="M128.63 159.208C148.202 153.384 160.641 161.952 169.538 171.831C178.436 181.709 178.022 192.925 178.022 192.925" stroke="black" stroke-width="4.05" stroke-miterlimit="10"/>
<path d="M189.338 352.411C189.043 368.114 187.105 383.74 183.56 399.018" stroke="black" stroke-width="4.05" stroke-miterlimit="10"/>
<path d="M237.975 480.295C230.807 492.958 213.807 501.952 193.005 507.549C156.092 517.483 107.221 516.708 80.2201 506.527C23.4801 485.172 45.5375 382.91 45.5375 382.91C45.5375 382.91 143.673 363.942 209.111 417.21C215.362 422.284 221.165 427.916 226.452 434.038C233.686 442.441 238.129 450.131 240.226 457.156C242.798 465.909 241.769 473.62 237.975 480.295Z" stroke="black" stroke-width="4.05" stroke-miterlimit="10"/>
<path d="M200.36 505.823C200.36 505.823 165.978 603.832 223.74 628.864C281.502 653.897 11.6231 657.231 71.1954 628.864C130.768 600.498 96.526 511.812 96.526 511.812" stroke="black" stroke-width="4.05" stroke-miterlimit="10"/>
<path d="M270.3 172.756C269.585 170.513 269.879 162.713 270.112 158.309C270.157 157.477 270.516 156.696 271.112 156.132C271.708 155.567 272.495 155.262 273.306 155.284L341.929 155.901C343.086 155.912 344.192 156.392 345.007 157.235C345.821 158.08 346.278 159.22 346.278 160.408V213.292C346.278 213.885 346.164 214.473 345.942 215.021C345.72 215.569 345.395 216.067 344.985 216.486C344.576 216.905 344.089 217.236 343.554 217.461C343.02 217.687 342.447 217.802 341.869 217.799L274.996 217.545C274.027 217.504 273.111 217.08 272.44 216.362C271.768 215.643 271.394 214.685 271.395 213.69V209.656C276.151 211.934 285.142 212.633 285.142 212.633C288.342 212.544 293.399 212.146 296.171 210.513C298.71 209.018 301.916 206.871 302.35 203.619C302.518 202.362 302.194 201.087 301.449 200.074C300.704 199.061 299.599 198.392 298.376 198.214C297.64 198.063 296.879 198.117 296.171 198.371" stroke="black" stroke-width="4.05" stroke-miterlimit="10"/>
<path d="M337.273 319.306C337.241 320.249 336.932 321.161 336.385 321.92C334.815 323.902 331.709 323.511 329.598 322.901C320.72 320.308 315.39 330.186 312.036 336.84C303.566 353.661 290.861 369.288 275.009 379.633C273.98 380.319 272.931 380.964 271.869 381.595C256.378 390.774 236.305 389.066 221.322 379.537L240.48 331.208L242.377 332.766C253.947 342.143 268.189 336.882 278.048 327.627C280.785 325.067 283.2 322.165 285.236 318.991C288.629 313.633 291.535 307.85 296.178 303.494C302.604 297.464 312.009 296.284 320.132 298.836C328.255 301.388 338.008 309.592 337.273 319.306Z" fill="white"/>
<path d="M337.193 315.882C337.193 315.882 335.015 304.042 315.383 313.282" stroke="black" stroke-width="4.05" stroke-miterlimit="10"/>
<path d="M326.271 301.67C326.271 301.67 314.034 297.65 307.22 307.254" stroke="black" stroke-width="4.05" stroke-miterlimit="10"/>
<path d="M79.2382 369.46C82.5054 369.759 85.7946 369.704 89.0511 369.296C97.5634 368.182 105.706 365.051 112.839 360.151C118.046 356.542 122.385 351.764 125.529 346.178C128.672 340.591 130.537 334.345 130.981 327.909C131.85 313.126 122.965 300.147 117.294 287.243C112.618 276.562 109.211 264.681 111.469 253.197C113.039 245.198 120.3 234.935 121.349 226.847C122.165 219.971 122.41 213.036 122.084 206.116C121.476 189.892 124.281 176.276 130.801 174.204C134.662 172.976 136.98 168.874 135.424 165.046C133.934 161.369 132.017 161.15 124.555 156.986C105.103 146.119 91.5761 166.377 84.1079 185.907C80.1466 196.259 79.345 207.756 74.3417 217.621C67.5548 230.991 52.0305 238.887 48.0625 253.43C45.5843 262.513 48.2563 272.247 47.0539 281.597C45.0899 296.902 33.4333 309.243 33.3999 325.035C33.3465 349.724 56.5996 367.478 79.2382 369.46Z" stroke="black" stroke-width="4.05" stroke-miterlimit="10"/>
<path d="M237.975 480.297C236.298 492.549 233.8 506.605 231.048 520.675C223.246 560.552 213.319 600.669 213.319 600.669" stroke="black" stroke-width="4.05" stroke-miterlimit="10"/>
<path d="M240.199 457.157C240.233 455.661 240.253 454.289 240.199 452.986C239.605 424.86 219.912 418.137 211.442 416.525C210.178 416.271 208.9 416.104 207.614 416.024" stroke="black" stroke-width="4.05" stroke-miterlimit="10"/>
<path d="M216.258 588.506C217.348 587.821 218.597 587.446 219.875 587.421C221.153 587.396 222.415 587.722 223.53 588.364C224.644 589.006 225.572 589.942 226.218 591.075C226.863 592.209 227.202 593.498 227.2 594.811C227.2 594.907 227.2 595.023 227.2 595.161C227.093 598.548 226.224 601.864 224.661 604.85C223.097 607.834 220.882 610.407 218.189 612.365L208.904 619.15" stroke="black" stroke-width="4.05" stroke-miterlimit="10"/>
<path d="M110.781 262.264C112.077 261.722 113.4 261.242 114.736 260.796C117.548 255.459 117.114 243.776 116.847 239.53L119.659 233.02C127.421 237.918 137.695 236.079 147.227 232.67C148.566 232.19 149.868 231.607 151.122 230.927C157.174 228.074 165.657 221.323 161.85 217.839C158.042 214.354 158.309 207.645 160.748 203.529C161.489 202.266 162.805 201.025 164.174 201.416C165.096 201.676 165.691 202.561 166.218 203.378C166.886 204.4 167.554 205.381 168.222 206.382C168.456 206.719 168.837 207.068 169.198 206.917C169.351 206.815 169.469 206.666 169.538 206.492C170.714 204.009 170.494 200.449 170.694 197.725C170.928 194.48 171.108 191.215 171.202 187.956C171.255 186.159 171.616 184.231 173.493 183.6C173.872 183.451 174.279 183.391 174.684 183.427C175.088 183.462 175.48 183.592 175.828 183.806C176.176 184.021 176.473 184.314 176.694 184.663C176.916 185.013 177.057 185.409 177.107 185.823C178.473 193.707 178.673 201.757 177.701 209.703C176.78 218.024 175.116 226.853 169.919 233.562C166.959 237.432 162.991 240.362 158.476 242.013C154.108 243.57 154.248 248.983 154.248 253.73V261.612C167.681 264.411 180.3 267.786 190.734 277.39C197.634 283.869 204.127 290.791 210.173 298.114C229.204 321.047 233.319 325.349 242.484 332.764C254.054 342.142 268.302 336.88 278.155 327.626C280.887 325.065 283.297 322.163 285.33 318.989C288.723 313.632 291.629 307.849 296.265 303.493C302.698 297.463 312.103 296.283 320.226 298.835C328.349 301.387 338.115 309.591 337.34 319.305C337.307 320.247 337 321.158 336.458 321.919C334.888 323.901 331.782 323.51 329.671 322.9C320.787 320.306 315.463 330.185 312.103 336.839C303.639 353.66 290.927 369.287 275.076 379.632C274.047 380.318 273.005 380.963 271.936 381.594C254.227 392.089 230.487 388.344 215.256 374.974L178.516 342.944" stroke="black" stroke-width="4.05" stroke-miterlimit="10"/>
<path d="M114.736 260.797C114.736 260.797 132.284 255.227 154.248 261.634" stroke="black" stroke-width="4.05" stroke-miterlimit="10"/>
<path d="M271.395 209.656C271.395 209.656 271.529 232.98 276.946 241.96" stroke="black" stroke-width="4.05" stroke-miterlimit="10"/>
<path d="M289.197 102.9C285.029 110.206 285.223 115.392 286.305 123.809C286.394 124.526 286.285 125.254 285.988 125.91C285.692 126.566 285.222 127.122 284.631 127.515C284.04 127.908 283.354 128.121 282.649 128.131C281.946 128.14 281.254 127.945 280.654 127.569C256.606 113.355 234.101 124.598 205.39 117.635C194.849 115.09 181.709 109.829 172.698 101.356C169.709 96.7966 168.113 91.4246 168.116 85.9283C168.116 62.8854 198.77 44.1988 236.566 44.1988C260.794 44.1988 282.076 51.8751 294.247 63.4411C294.247 63.4411 294.247 63.4411 294.281 63.4822C297.334 67.9907 299.001 73.3368 299.064 78.8282C299.064 87.122 293.078 96.04 289.197 102.9Z" fill="#D7E8F0"/>
<path d="M298.957 78.8427V79.4257C298.816 87.5 294.882 95.0048 290.213 101.501C287.086 105.85 283.379 110.673 284.261 116.003C284.648 118.349 285.924 120.483 286.265 122.863C286.605 125.244 285.363 128.159 283.045 128.283C281.575 128.358 280.32 127.281 279.157 126.355C272.257 120.867 263.292 118.809 254.575 118.452C245.857 118.096 237.153 119.269 228.429 119.522C215.858 119.893 203.085 118.281 191.469 113.348C181.028 108.876 171.509 101.604 165.243 91.9247C159.091 82.3824 162.731 68.5388 169.291 60.2451C175.45 52.4658 184.361 47.4855 193.506 43.98C218.095 34.5475 246.165 34.7739 270.42 45.0982C277.621 48.1303 284.568 52.1365 289.979 57.9127C295.256 63.5447 298.91 71.0497 298.957 78.8427Z" stroke="black" stroke-width="4.05" stroke-miterlimit="10"/>
<path d="M198.049 88.0213C203.265 88.0213 207.494 83.6789 207.494 78.3213C207.494 72.9643 203.265 68.6212 198.049 68.6212C192.832 68.6212 188.603 72.9643 188.603 78.3213C188.603 83.6789 192.832 88.0213 198.049 88.0213Z" fill="white"/>
<path d="M228.59 88.0213C233.806 88.0213 238.035 83.6789 238.035 78.3213C238.035 72.9643 233.806 68.6212 228.59 68.6212C223.373 68.6212 219.144 72.9643 219.144 78.3213C219.144 83.6789 223.373 88.0213 228.59 88.0213Z" fill="white"/>
<path d="M259.725 88.0213C264.942 88.0213 269.171 83.6789 269.171 78.3213C269.171 72.9643 264.942 68.6212 259.725 68.6212C254.509 68.6212 250.28 72.9643 250.28 78.3213C250.28 83.6789 254.509 88.0213 259.725 88.0213Z" fill="white"/>
<g opacity="0.54">
<path opacity="0.54" d="M441.227 485.003L437.386 541.941C435.63 545.378 433.435 548.56 430.86 551.401C430.579 551.298 430.299 551.189 430.025 551.058C429.511 550.88 429.003 550.667 428.522 550.461C420.74 546.956 414.828 540.425 413.105 533.023C411.548 526.541 412.951 519.537 409.945 513.445C406.278 505.94 396.304 501.234 395.082 492.769C393.933 484.846 400.88 477.581 399.758 469.815C398.422 461.035 387.968 455.828 386.01 447.253C384.788 441.923 385.884 435.803 385.423 430.315C384.914 424.176 383.911 418.091 382.423 412.123C397.901 410.97 413.652 419.73 418.669 432.277C422.764 442.567 420.299 454.552 426.685 463.909C430.172 468.978 435.977 472.772 438.983 478.075C439.91 479.729 440.586 481.52 440.987 483.384C440.987 483.515 440.987 483.645 441.034 483.748C441.034 483.961 441.087 484.112 441.114 484.269C441.181 484.743 441.227 485.003 441.227 485.003Z" fill="#67ADFE"/>
<path opacity="0.54" d="M441.253 484.952C441.253 484.952 441.207 484.719 441.154 484.268C441.199 484.448 441.232 484.63 441.253 484.815C441.263 484.836 441.268 484.86 441.268 484.883C441.268 484.907 441.263 484.93 441.253 484.952Z" fill="#67ADFE"/>
</g>
<path d="M492.389 462.735C490.385 470.13 479.41 474.624 478.088 482.204C476.919 488.927 484.146 495.197 482.951 502.022C481.675 509.342 471.287 513.389 467.473 519.858C464.367 525.113 465.816 531.157 464.213 536.748C462.356 543.1 456.197 548.773 448.074 551.778C447.567 551.963 447.086 552.142 446.571 552.299C446.291 552.382 445.983 552.485 445.703 552.56C443.031 550.289 439.925 546.29 437.406 541.975L441.227 485.003C444.207 482.41 447.613 480.036 449.985 477.155C452.557 474.047 453.752 470.652 454.514 467.091H454.594V466.7C455.71 461.082 455.81 455.196 458.382 449.866C463.599 439.02 479.971 431.46 496.084 432.455C494.563 437.578 493.523 442.838 492.977 448.165C492.516 452.877 493.652 458.16 492.389 462.735Z" fill="#016EEA"/>
<path d="M454.62 466.651V467.041H454.541L454.62 466.651Z" fill="#3FBDF1"/>
<path d="M454.621 466.651L454.541 467.043C453.779 470.603 452.583 473.999 450.012 477.106C447.64 479.987 444.233 482.361 441.254 484.954C441.266 484.918 441.266 484.88 441.254 484.844C441.233 484.659 441.199 484.476 441.154 484.295C441.154 484.138 441.1 483.987 441.074 483.774C441.074 483.671 441.074 483.541 441.027 483.41C440.626 481.546 439.95 479.755 439.023 478.101C436.017 472.798 430.212 469.004 426.725 463.935C426.725 463.935 428.302 437.215 441.615 429.086C454.24 421.403 454.621 462.206 454.621 466.651Z" fill="#67ADFE"/>
<path d="M454.62 466.651V467.041H454.541L454.62 466.651Z" fill="#3FBDF1"/>
<path d="M441.227 484.843V485C441.227 485 441.18 484.767 441.127 484.316C441.172 484.489 441.205 484.665 441.227 484.843Z" fill="#3FBDF1"/>
<path d="M440.038 485.001C443.004 482.408 446.451 480 448.829 477.126C455.509 469.038 452.931 458.7 457.213 449.83C462.423 438.998 478.809 431.445 494.915 432.433C493.385 437.554 492.343 442.815 491.802 448.142C491.321 452.89 492.47 458.165 491.207 462.761C489.156 470.156 478.221 474.643 476.892 482.223C475.71 488.939 482.957 495.209 481.762 502.028C480.486 509.354 470.105 513.402 466.284 519.864C463.165 525.125 464.627 531.155 463.011 536.76C461.054 543.517 454.24 549.485 445.362 552.305C445.082 552.401 444.774 552.504 444.487 552.579C441.815 550.308 438.709 546.309 436.184 541.987" stroke="black" stroke-width="4.05" stroke-miterlimit="10"/>
<path d="M485.082 440.918C461.067 467.46 449.771 523.417 445.376 552.311C445.015 554.746 444.708 556.976 444.414 558.986" stroke="black" stroke-width="4.05" stroke-miterlimit="10"/>
<path d="M487.299 575.258L476.284 642.205C476.022 644.038 475.136 645.717 473.784 646.945C472.432 648.171 470.7 648.867 468.896 648.907H411.127C409.305 648.865 407.558 648.155 406.201 646.906C404.843 645.656 403.966 643.95 403.726 642.095L393.539 575.251L487.299 575.258Z" stroke="black" stroke-width="4.05" stroke-miterlimit="10"/>
<path d="M497.794 567.783C497.695 569.768 496.869 571.642 495.482 573.029C494.094 574.415 492.248 575.212 490.312 575.26H390.707C388.793 575.213 386.965 574.432 385.583 573.071C384.201 571.71 383.365 569.868 383.238 567.906C382.817 563.104 386.278 558.988 390.707 558.988H490.312C494.701 558.995 498.148 563.05 497.794 567.783Z" stroke="black" stroke-width="4.05" stroke-miterlimit="10"/>
<path d="M429.678 551.386C433.953 547.03 439.19 537.316 441.508 529.386C443.418 522.849 440.058 516.119 439.283 509.41C438.081 498.907 443.158 487.616 437.807 478.094C434.821 472.784 429.016 469.011 425.529 463.928C419.11 454.564 421.575 442.587 417.473 432.317C412.457 419.757 396.712 410.996 381.241 412.163C382.719 418.133 383.723 424.218 384.24 430.355C384.701 435.843 383.572 441.962 384.815 447.286C386.772 455.861 397.273 461.054 398.562 469.841C399.698 477.607 392.744 484.878 393.886 492.788C395.115 501.267 405.075 505.952 408.756 513.471C411.748 519.57 410.346 526.567 411.895 533.043C413.839 541.137 420.726 548.251 429.678 551.386Z" stroke="black" stroke-width="4.05" stroke-miterlimit="10"/>
<path d="M390.686 422C413.739 452.76 424.587 517.58 428.856 551.043C429.217 553.945 429.524 556.607 429.798 558.987" stroke="black" stroke-width="4.05" stroke-miterlimit="10"/>
<path d="M425.516 463.927C425.516 463.927 427.099 437.208 440.406 429.085C453.712 420.963 453.432 466.479 453.432 466.479" stroke="black" stroke-width="4.05" stroke-miterlimit="10"/>
<path d="M440.038 485.001C440.038 485.001 437.32 469.717 442.089 454.687" stroke="black" stroke-width="4.05" stroke-miterlimit="10"/>
</svg>
